<?xml version="1.0"?>
<svg xmlns:rdf="http://www.w3.org/1999/02/22-rdf-syntax-ns#" xmlns="http://www.w3.org/2000/svg" xmlns:cc="http://creativecommons.org/ns#" xmlns:xlink="http://www.w3.org/1999/xlink" xmlns:dc="http://purl.org/dc/elements/1.1/" xmlns:svg="http://www.w3.org/2000/svg" version="1.1" viewBox="0 0 507.25 759.93">
  <defs>
    <filter id="filter5166" height="1.1639" width="1.2286" y="-.081955" x="-.11428" color-interpolation-filters="sRGB">
      <feGaussianBlur stdDeviation="12.013053"/>
    </filter>
    <linearGradient id="linearGradient57679" x1="378.32" gradientUnits="userSpaceOnUse" y1="366.78" gradientTransform="matrix(1.7223 0 0 1.7223 -311.07 -736.99)" x2="448.59" y2="386.63">
      <stop stop-color="#6c3000" offset="0"/>
      <stop stop-color="#9c6000" offset=".13115"/>
      <stop stop-color="#d8a820" offset=".2818"/>
      <stop stop-color="#cc9408" offset=".58523"/>
      <stop stop-color="#cc980c" offset=".73915"/>
      <stop stop-color="#f4e868" offset=".85133"/>
      <stop stop-color="#602400" offset="1"/>
    </linearGradient>
    <linearGradient id="linearGradient57681" x1="285.83" xlink:href="#linearGradient5094" gradientUnits="userSpaceOnUse" y1="611.71" gradientTransform="matrix(1.7223 0 0 1.7223 -311.07 -736.99)" x2="458.91" y2="578.37"/>
    <linearGradient id="linearGradient5094">
      <stop stop-color="#6c3000" offset="0"/>
      <stop stop-color="#9c6000" offset=".17883"/>
      <stop stop-color="#d8a820" offset=".35969"/>
      <stop stop-color="#cc9408" offset=".58523"/>
      <stop stop-color="#cc980c" offset=".73915"/>
      <stop stop-color="#f4e868" offset=".85133"/>
      <stop stop-color="#602400" offset="1"/>
    </linearGradient>
    <linearGradient id="linearGradient57683" x1="278.28" xlink:href="#linearGradient5094" gradientUnits="userSpaceOnUse" y1="622.43" gradientTransform="matrix(1.7223 0 0 1.7223 -311.07 -736.99)" x2="522.03" y2="676.42"/>
    <linearGradient id="linearGradient57685" x1="335.05" gradientUnits="userSpaceOnUse" y1="526.36" gradientTransform="matrix(1.7223 0 0 1.7223 -311.07 -736.99)" x2="466.85" y2="560.11">
      <stop stop-color="#6c3000" stop-opacity=".32692" offset="0"/>
      <stop stop-color="#a06400" offset=".18644"/>
      <stop stop-color="#fcf87c" offset=".36713"/>
      <stop stop-color="#cc9408" offset=".55897"/>
      <stop stop-color="#cc980c" offset=".78972"/>
      <stop stop-color="#f4e868" offset=".9284"/>
      <stop stop-color="#602400" offset="1"/>
    </linearGradient>
    <linearGradient id="linearGradient57687" x1="372.37" xlink:href="#linearGradient5094" gradientUnits="userSpaceOnUse" y1="425.53" gradientTransform="matrix(1.7223 0 0 1.7223 -311.07 -736.99)" x2="427.15" y2="405.28"/>
    <linearGradient id="linearGradient57689" x1="362.05" xlink:href="#linearGradient5094" gradientUnits="userSpaceOnUse" y1="435.06" gradientTransform="matrix(1.7223 0 0 1.7223 -311.07 -736.99)" x2="464.86" y2="473.56"/>
    <linearGradient id="linearGradient57691" x1="346.96" xlink:href="#linearGradient5094" gradientUnits="userSpaceOnUse" y1="513.66" gradientTransform="matrix(1.7223 0 0 1.7223 -311.07 -736.99)" x2="453.35" y2="484.68"/>
    <radialGradient id="radialGradient57693" gradientUnits="userSpaceOnUse" cy="380.97" cx="557.4" gradientTransform="matrix(.89143 -.096365 .091226 .70289 25.76 166.9)" r="22.677">
      <stop stop-color="#fcfc80" offset="0"/>
      <stop stop-color="#d8ac24" offset=".57"/>
      <stop stop-color="#a86c00" offset="1"/>
    </radialGradient>
    <filter id="filter5267" height="1.2974" width="1.2505" y="-.14871" x="-.12524" color-interpolation-filters="sRGB">
      <feGaussianBlur stdDeviation="4.9068695"/>
    </filter>
    <filter id="filter34899" color-interpolation-filters="sRGB">
      <feGaussianBlur stdDeviation="0.22593468"/>
    </filter>
  </defs>
  <g transform="translate(-158.98 -169.27)">
    <path d="m158.98 169.27h507.25v759.93h-507.25z"/>
    <g transform="matrix(.94224 0 0 .94224 48.648 459.72)">
      <path filter="url(#filter5166)" fill="#fcfc80" transform="matrix(1.7223 0 0 1.7223 -2192.9 -262.58)" d="m1514.7 108.77c32.328-0.84983 47.815 17.515-14.158 34.412-48.9 16.203-67.87 32.325 1.3202 41.432 105.39 9.6128 53.024 36.422-20.116 49.422-74.246 15.498-79.603 31.229 15.327 41.651 128.32 15.59 46.472 46.459-29.219 52.597-123.27 5.9406-139.48 36.732 10.732 49.876 85.103 5.5266 166.64 12.909 133.62 34.754 40.578-27.897-40.955-35.279-126.06-40.806-150.22-13.144-134-43.935-10.732-49.876 75.691-6.1374 157.54-37.006 29.219-52.597-94.93-10.421-89.572-26.153-15.327-41.651 73.14-13.001 125.51-39.81 20.116-49.422-69.19-9.1068-50.22-25.229-1.3202-41.432 61.973-16.897 46.486-35.262 14.158-34.412-42.931-4.5251-54.829-14.968 1.5075-41.597-63.901 32.681-52.003 43.123-9.0724 47.649z"/>
      <path d="m450.01-53.597c11.519-23.805-20.392-26.29-53.69-28.094-111.13-8.6753-15.171-64.52 9.6767-74.605-62.003 32.358-73.281 55.322-0.62434 62.743 62.674 3.1674 76.021 16.811 44.638 39.956z" fill="url(#linearGradient57679)"/>
      <path d="m169.33 322.29c23.303-25.684 92.66-27.441 152.33-34.337 56.237-6.4987 113.19-9.6142 165.44-35.273-24.058 26.591-92.524 38.492-160.45 44.638-54.576 4.9385-109.13 6.5568-157.33 24.972z" fill="url(#linearGradient57681)"/>
      <path d="m170.32 321.61c-16.617 31.196 121.73 48.022 222.96 54.615 261.98 17.06 192.45 55.788 179.7 66.719 53.478-41.003-98.217-46.329-191.52-56.022-81.066-8.4212-283.41-23.163-211.14-65.312z" fill="url(#linearGradient57683)"/>
      <path d="m263.29 160.29c7.1086 29.102 90.519 29.828 135.47 37.77 143.6 21.018 100.96 47.04 88.651 54.002 14.193-26.462-57.43-34.826-100.2-42.765-39.516-5.1187-79.849-6.5456-119.24-20.914-31.057-11.328-12.668-23.13-4.6823-28.094z" fill="url(#linearGradient57685)"/>
      <path d="m319.79 3.2746c13.562-12.07 41.294-27.258 63.679-32.152 22.046-6.3431 44.355-12.072 63.991-24.036-12.594 13.92-37.318 23.962-59.309 30.279-25.924 6.3945-45.714 17.132-68.362 25.909z" fill="url(#linearGradient57687)"/>
      <path d="m318.54 4.5233c-10.446 6.6837-44.46 29.809 42.141 43.701 35.129 5.6354 69.821 7.5893 101.14 15.608 20.116 6.0786 24.351 13.827 20.602 25.597 6.9224-6.4984 21.851-16.685 13.11-25.284-17.6-17.316-67.85-21.257-108.32-25.285-21.26-2.117-46.33-7.241-62.43-16.232-6.9-3.851-7.92-11.503-6.24-18.105z" fill="url(#linearGradient57689)"/>
      <path d="m379.1 121.27c36.249-7.2062 70.919-17.569 103.01-33.088-16.518 14.624-43.933 28.858-106.76 41.828-39.153 6.9668-59.702 9.3955-112.06 29.967 22.561-20.963 63.649-29.671 115.81-38.707z" fill="url(#linearGradient57691)"/>
      <g transform="translate(-115.35 54.427)">
        <g transform="matrix(.39620 0 0 .39620 460.18 -63.165)">
          <path transform="matrix(.78579 0 0 .86101 -200.07 -418.26)" d="m574.86 399.82-14.967-5.557-13.063 9.1792 0.6599-15.952-12.767-9.5869 15.375-4.3018 5.1726-15.104 8.8424 13.293 15.963 0.25196-9.9101 12.517z" fill="url(#radialGradient57693)"/>
          <path opacity=".40769" filter="url(#filter5267)" fill="#FFF" transform="matrix(.76786 0 0 .84136 -189.22 -408.74)" d="m588.67 410-25.165-16.793 9.083 22.674-16.451-21.722-14.79 23.017 8.2698-26.578-27.145 18.683 23.963-25.396-37.195-9.0475 38.566 1.7458-23.657-26.741 29.059 21.64-1.472-33.497 8.8401 32.545 22.047-26.248-15.527 29.809 36.172-13.514-32.99 20.227 28.876 9.3706-30.247-2.0688z"/>
        </g>
        <path opacity=".40769" filter="url(#filter5267)" fill="#FFF" transform="matrix(.76786 0 0 .84136 126.77 -420.81)" d="m588.67 410-25.165-16.793 9.083 22.674-16.451-21.722-14.79 23.017 8.2698-26.578-27.145 18.683 23.963-25.396-37.195-9.0475 38.566 1.7458-23.657-26.741 29.059 21.64-1.472-33.497 8.8401 32.545 22.047-26.248-15.527 29.809 36.172-13.514-32.99 20.227 28.876 9.3706-30.247-2.0688z"/>
      </g>
      <g transform="translate(-250.22 116.01)">
        <g transform="matrix(.39620 0 0 .39620 460.18 -63.165)">
          <path fill="url(#radialGradient57693)" transform="matrix(.78579 0 0 .86101 -200.07 -418.26)" d="m574.86 399.82-14.967-5.557-13.063 9.1792 0.6599-15.952-12.767-9.5869 15.375-4.3018 5.1726-15.104 8.8424 13.293 15.963 0.25196-9.9101 12.517z"/>
          <path opacity=".40769" filter="url(#filter5267)" fill="#FFF" transform="matrix(.76786 0 0 .84136 -189.22 -408.74)" d="m588.67 410-25.165-16.793 9.083 22.674-16.451-21.722-14.79 23.017 8.2698-26.578-27.145 18.683 23.963-25.396-37.195-9.0475 38.566 1.7458-23.657-26.741 29.059 21.64-1.472-33.497 8.8401 32.545 22.047-26.248-15.527 29.809 36.172-13.514-32.99 20.227 28.876 9.3706-30.247-2.0688z"/>
        </g>
        <path opacity=".40769" filter="url(#filter5267)" fill="#FFF" transform="matrix(.76786 0 0 .84136 126.77 -420.81)" d="m588.67 410-25.165-16.793 9.083 22.674-16.451-21.722-14.79 23.017 8.2698-26.578-27.145 18.683 23.963-25.396-37.195-9.0475 38.566 1.7458-23.657-26.741 29.059 21.64-1.472-33.497 8.8401 32.545 22.047-26.248-15.527 29.809 36.172-13.514-32.99 20.227 28.876 9.3706-30.247-2.0688z"/>
      </g>
      <g transform="translate(-186.79 5.2303)">
        <g transform="matrix(.39620 0 0 .39620 460.18 -63.165)">
          <path transform="matrix(.78579 0 0 .86101 -200.07 -418.26)" d="m574.86 399.82-14.967-5.557-13.063 9.1792 0.6599-15.952-12.767-9.5869 15.375-4.3018 5.1726-15.104 8.8424 13.293 15.963 0.25196-9.9101 12.517z" fill="url(#radialGradient57693)"/>
          <path opacity=".40769" filter="url(#filter5267)" fill="#FFF" transform="matrix(.76786 0 0 .84136 -189.22 -408.74)" d="m588.67 410-25.165-16.793 9.083 22.674-16.451-21.722-14.79 23.017 8.2698-26.578-27.145 18.683 23.963-25.396-37.195-9.0475 38.566 1.7458-23.657-26.741 29.059 21.64-1.472-33.497 8.8401 32.545 22.047-26.248-15.527 29.809 36.172-13.514-32.99 20.227 28.876 9.3706-30.247-2.0688z"/>
        </g>
        <path opacity=".40769" filter="url(#filter5267)" fill="#FFF" transform="matrix(.76786 0 0 .84136 126.77 -420.81)" d="m588.67 410-25.165-16.793 9.083 22.674-16.451-21.722-14.79 23.017 8.2698-26.578-27.145 18.683 23.963-25.396-37.195-9.0475 38.566 1.7458-23.657-26.741 29.059 21.64-1.472-33.497 8.8401 32.545 22.047-26.248-15.527 29.809 36.172-13.514-32.99 20.227 28.876 9.3706-30.247-2.0688z"/>
      </g>
      <g transform="translate(-181.84 -37.472)">
        <g transform="matrix(.39620 0 0 .39620 460.18 -63.165)">
          <path transform="matrix(.78579 0 0 .86101 -200.07 -418.26)" d="m574.86 399.82-14.967-5.557-13.063 9.1792 0.6599-15.952-12.767-9.5869 15.375-4.3018 5.1726-15.104 8.8424 13.293 15.963 0.25196-9.9101 12.517z" fill="url(#radialGradient57693)"/>
          <path opacity=".40769" filter="url(#filter5267)" fill="#FFF" transform="matrix(.76786 0 0 .84136 -189.22 -408.74)" d="m588.67 410-25.165-16.793 9.083 22.674-16.451-21.722-14.79 23.017 8.2698-26.578-27.145 18.683 23.963-25.396-37.195-9.0475 38.566 1.7458-23.657-26.741 29.059 21.64-1.472-33.497 8.8401 32.545 22.047-26.248-15.527 29.809 36.172-13.514-32.99 20.227 28.876 9.3706-30.247-2.0688z"/>
        </g>
        <path opacity=".40769" filter="url(#filter5267)" fill="#FFF" transform="matrix(.76786 0 0 .84136 126.77 -420.81)" d="m588.67 410-25.165-16.793 9.083 22.674-16.451-21.722-14.79 23.017 8.2698-26.578-27.145 18.683 23.963-25.396-37.195-9.0475 38.566 1.7458-23.657-26.741 29.059 21.64-1.472-33.497 8.8401 32.545 22.047-26.248-15.527 29.809 36.172-13.514-32.99 20.227 28.876 9.3706-30.247-2.0688z"/>
      </g>
      <g transform="translate(-205.44 -8.2901)">
        <g transform="matrix(.39620 0 0 .39620 460.18 -63.165)">
          <path transform="matrix(.78579 0 0 .86101 -200.07 -418.26)" d="m574.86 399.82-14.967-5.557-13.063 9.1792 0.6599-15.952-12.767-9.5869 15.375-4.3018 5.1726-15.104 8.8424 13.293 15.963 0.25196-9.9101 12.517z" fill="url(#radialGradient57693)"/>
          <path opacity=".40769" filter="url(#filter5267)" fill="#FFF" transform="matrix(.76786 0 0 .84136 -189.22 -408.74)" d="m588.67 410-25.165-16.793 9.083 22.674-16.451-21.722-14.79 23.017 8.2698-26.578-27.145 18.683 23.963-25.396-37.195-9.0475 38.566 1.7458-23.657-26.741 29.059 21.64-1.472-33.497 8.8401 32.545 22.047-26.248-15.527 29.809 36.172-13.514-32.99 20.227 28.876 9.3706-30.247-2.0688z"/>
        </g>
        <path opacity=".40769" filter="url(#filter5267)" fill="#FFF" transform="matrix(.76786 0 0 .84136 126.77 -420.81)" d="m588.67 410-25.165-16.793 9.083 22.674-16.451-21.722-14.79 23.017 8.2698-26.578-27.145 18.683 23.963-25.396-37.195-9.0475 38.566 1.7458-23.657-26.741 29.059 21.64-1.472-33.497 8.8401 32.545 22.047-26.248-15.527 29.809 36.172-13.514-32.99 20.227 28.876 9.3706-30.247-2.0688z"/>
      </g>
      <g transform="translate(-199.06 84.912)">
        <g transform="matrix(.39620 0 0 .39620 460.18 -63.165)">
          <path transform="matrix(.78579 0 0 .86101 -200.07 -418.26)" d="m574.86 399.82-14.967-5.557-13.063 9.1792 0.6599-15.952-12.767-9.5869 15.375-4.3018 5.1726-15.104 8.8424 13.293 15.963 0.25196-9.9101 12.517z" fill="url(#radialGradient57693)"/>
          <path opacity=".40769" filter="url(#filter5267)" fill="#FFF" transform="matrix(.76786 0 0 .84136 -189.22 -408.74)" d="m588.67 410-25.165-16.793 9.083 22.674-16.451-21.722-14.79 23.017 8.2698-26.578-27.145 18.683 23.963-25.396-37.195-9.0475 38.566 1.7458-23.657-26.741 29.059 21.64-1.472-33.497 8.8401 32.545 22.047-26.248-15.527 29.809 36.172-13.514-32.99 20.227 28.876 9.3706-30.247-2.0688z"/>
        </g>
        <path opacity=".40769" filter="url(#filter5267)" fill="#FFF" transform="matrix(.76786 0 0 .84136 126.77 -420.81)" d="m588.67 410-25.165-16.793 9.083 22.674-16.451-21.722-14.79 23.017 8.2698-26.578-27.145 18.683 23.963-25.396-37.195-9.0475 38.566 1.7458-23.657-26.741 29.059 21.64-1.472-33.497 8.8401 32.545 22.047-26.248-15.527 29.809 36.172-13.514-32.99 20.227 28.876 9.3706-30.247-2.0688z"/>
      </g>
      <g transform="translate(-152.65 10.821)">
        <g transform="matrix(.39620 0 0 .39620 460.18 -63.165)">
          <path transform="matrix(.78579 0 0 .86101 -200.07 -418.26)" d="m574.86 399.82-14.967-5.557-13.063 9.1792 0.6599-15.952-12.767-9.5869 15.375-4.3018 5.1726-15.104 8.8424 13.293 15.963 0.25196-9.9101 12.517z" fill="url(#radialGradient57693)"/>
          <path opacity=".40769" filter="url(#filter5267)" fill="#FFF" transform="matrix(.76786 0 0 .84136 -189.22 -408.74)" d="m588.67 410-25.165-16.793 9.083 22.674-16.451-21.722-14.79 23.017 8.2698-26.578-27.145 18.683 23.963-25.396-37.195-9.0475 38.566 1.7458-23.657-26.741 29.059 21.64-1.472-33.497 8.8401 32.545 22.047-26.248-15.527 29.809 36.172-13.514-32.99 20.227 28.876 9.3706-30.247-2.0688z"/>
        </g>
        <path opacity=".40769" filter="url(#filter5267)" fill="#FFF" transform="matrix(.76786 0 0 .84136 126.77 -420.81)" d="m588.67 410-25.165-16.793 9.083 22.674-16.451-21.722-14.79 23.017 8.2698-26.578-27.145 18.683 23.963-25.396-37.195-9.0475 38.566 1.7458-23.657-26.741 29.059 21.64-1.472-33.497 8.8401 32.545 22.047-26.248-15.527 29.809 36.172-13.514-32.99 20.227 28.876 9.3706-30.247-2.0688z"/>
      </g>
      <g transform="translate(-109.51 16.99)">
        <g transform="matrix(.39620 0 0 .39620 460.18 -63.165)">
          <path transform="matrix(.78579 0 0 .86101 -200.07 -418.26)" d="m574.86 399.82-14.967-5.557-13.063 9.1792 0.6599-15.952-12.767-9.5869 15.375-4.3018 5.1726-15.104 8.8424 13.293 15.963 0.25196-9.9101 12.517z" fill="url(#radialGradient57693)"/>
          <path opacity=".40769" filter="url(#filter5267)" fill="#FFF" transform="matrix(.76786 0 0 .84136 -189.22 -408.74)" d="m588.67 410-25.165-16.793 9.083 22.674-16.451-21.722-14.79 23.017 8.2698-26.578-27.145 18.683 23.963-25.396-37.195-9.0475 38.566 1.7458-23.657-26.741 29.059 21.64-1.472-33.497 8.8401 32.545 22.047-26.248-15.527 29.809 36.172-13.514-32.99 20.227 28.876 9.3706-30.247-2.0688z"/>
        </g>
        <path opacity=".40769" filter="url(#filter5267)" fill="#FFF" transform="matrix(.76786 0 0 .84136 126.77 -420.81)" d="m588.67 410-25.165-16.793 9.083 22.674-16.451-21.722-14.79 23.017 8.2698-26.578-27.145 18.683 23.963-25.396-37.195-9.0475 38.566 1.7458-23.657-26.741 29.059 21.64-1.472-33.497 8.8401 32.545 22.047-26.248-15.527 29.809 36.172-13.514-32.99 20.227 28.876 9.3706-30.247-2.0688z"/>
      </g>
      <g transform="translate(-76.682 185.16)">
        <g transform="matrix(.39620 0 0 .39620 460.18 -63.165)">
          <path transform="matrix(.78579 0 0 .86101 -200.07 -418.26)" d="m574.86 399.82-14.967-5.557-13.063 9.1792 0.6599-15.952-12.767-9.5869 15.375-4.3018 5.1726-15.104 8.8424 13.293 15.963 0.25196-9.9101 12.517z" fill="url(#radialGradient57693)"/>
          <path opacity=".40769" filter="url(#filter5267)" fill="#FFF" transform="matrix(.76786 0 0 .84136 -189.22 -408.74)" d="m588.67 410-25.165-16.793 9.083 22.674-16.451-21.722-14.79 23.017 8.2698-26.578-27.145 18.683 23.963-25.396-37.195-9.0475 38.566 1.7458-23.657-26.741 29.059 21.64-1.472-33.497 8.8401 32.545 22.047-26.248-15.527 29.809 36.172-13.514-32.99 20.227 28.876 9.3706-30.247-2.0688z"/>
        </g>
        <path opacity=".40769" filter="url(#filter5267)" fill="#FFF" transform="matrix(.76786 0 0 .84136 126.77 -420.81)" d="m588.67 410-25.165-16.793 9.083 22.674-16.451-21.722-14.79 23.017 8.2698-26.578-27.145 18.683 23.963-25.396-37.195-9.0475 38.566 1.7458-23.657-26.741 29.059 21.64-1.472-33.497 8.8401 32.545 22.047-26.248-15.527 29.809 36.172-13.514-32.99 20.227 28.876 9.3706-30.247-2.0688z"/>
      </g>
      <g transform="translate(-168.2 142)">
        <g transform="matrix(.39620 0 0 .39620 460.18 -63.165)">
          <path fill="url(#radialGradient57693)" transform="matrix(.78579 0 0 .86101 -200.07 -418.26)" d="m574.86 399.82-14.967-5.557-13.063 9.1792 0.6599-15.952-12.767-9.5869 15.375-4.3018 5.1726-15.104 8.8424 13.293 15.963 0.25196-9.9101 12.517z"/>
          <path opacity=".40769" filter="url(#filter5267)" fill="#FFF" transform="matrix(.76786 0 0 .84136 -189.22 -408.74)" d="m588.67 410-25.165-16.793 9.083 22.674-16.451-21.722-14.79 23.017 8.2698-26.578-27.145 18.683 23.963-25.396-37.195-9.0475 38.566 1.7458-23.657-26.741 29.059 21.64-1.472-33.497 8.8401 32.545 22.047-26.248-15.527 29.809 36.172-13.514-32.99 20.227 28.876 9.3706-30.247-2.0688z"/>
        </g>
        <path opacity=".40769" filter="url(#filter5267)" fill="#FFF" transform="matrix(.76786 0 0 .84136 126.77 -420.81)" d="m588.67 410-25.165-16.793 9.083 22.674-16.451-21.722-14.79 23.017 8.2698-26.578-27.145 18.683 23.963-25.396-37.195-9.0475 38.566 1.7458-23.657-26.741 29.059 21.64-1.472-33.497 8.8401 32.545 22.047-26.248-15.527 29.809 36.172-13.514-32.99 20.227 28.876 9.3706-30.247-2.0688z"/>
      </g>
      <g transform="translate(-71.127 261.74)">
        <g transform="matrix(.39620 0 0 .39620 460.18 -63.165)">
          <path transform="matrix(.78579 0 0 .86101 -200.07 -418.26)" d="m574.86 399.82-14.967-5.557-13.063 9.1792 0.6599-15.952-12.767-9.5869 15.375-4.3018 5.1726-15.104 8.8424 13.293 15.963 0.25196-9.9101 12.517z" fill="url(#radialGradient57693)"/>
          <path opacity=".40769" filter="url(#filter5267)" fill="#FFF" transform="matrix(.76786 0 0 .84136 -189.22 -408.74)" d="m588.67 410-25.165-16.793 9.083 22.674-16.451-21.722-14.79 23.017 8.2698-26.578-27.145 18.683 23.963-25.396-37.195-9.0475 38.566 1.7458-23.657-26.741 29.059 21.64-1.472-33.497 8.8401 32.545 22.047-26.248-15.527 29.809 36.172-13.514-32.99 20.227 28.876 9.3706-30.247-2.0688z"/>
        </g>
        <path opacity=".40769" filter="url(#filter5267)" fill="#FFF" transform="matrix(.76786 0 0 .84136 126.77 -420.81)" d="m588.67 410-25.165-16.793 9.083 22.674-16.451-21.722-14.79 23.017 8.2698-26.578-27.145 18.683 23.963-25.396-37.195-9.0475 38.566 1.7458-23.657-26.741 29.059 21.64-1.472-33.497 8.8401 32.545 22.047-26.248-15.527 29.809 36.172-13.514-32.99 20.227 28.876 9.3706-30.247-2.0688z"/>
      </g>
      <g transform="translate(-163.4 222.75)">
        <g transform="matrix(.39620 0 0 .39620 460.18 -63.165)">
          <path fill="url(#radialGradient57693)" transform="matrix(.78579 0 0 .86101 -200.07 -418.26)" d="m574.86 399.82-14.967-5.557-13.063 9.1792 0.6599-15.952-12.767-9.5869 15.375-4.3018 5.1726-15.104 8.8424 13.293 15.963 0.25196-9.9101 12.517z"/>
          <path opacity=".40769" filter="url(#filter5267)" fill="#FFF" transform="matrix(.76786 0 0 .84136 -189.22 -408.74)" d="m588.67 410-25.165-16.793 9.083 22.674-16.451-21.722-14.79 23.017 8.2698-26.578-27.145 18.683 23.963-25.396-37.195-9.0475 38.566 1.7458-23.657-26.741 29.059 21.64-1.472-33.497 8.8401 32.545 22.047-26.248-15.527 29.809 36.172-13.514-32.99 20.227 28.876 9.3706-30.247-2.0688z"/>
        </g>
        <path opacity=".40769" filter="url(#filter5267)" fill="#FFF" transform="matrix(.76786 0 0 .84136 126.77 -420.81)" d="m588.67 410-25.165-16.793 9.083 22.674-16.451-21.722-14.79 23.017 8.2698-26.578-27.145 18.683 23.963-25.396-37.195-9.0475 38.566 1.7458-23.657-26.741 29.059 21.64-1.472-33.497 8.8401 32.545 22.047-26.248-15.527 29.809 36.172-13.514-32.99 20.227 28.876 9.3706-30.247-2.0688z"/>
      </g>
      <g transform="translate(-117.27 209.82)">
        <g transform="matrix(.39620 0 0 .39620 460.18 -63.165)">
          <path transform="matrix(.78579 0 0 .86101 -200.07 -418.26)" d="m574.86 399.82-14.967-5.557-13.063 9.1792 0.6599-15.952-12.767-9.5869 15.375-4.3018 5.1726-15.104 8.8424 13.293 15.963 0.25196-9.9101 12.517z" fill="url(#radialGradient57693)"/>
          <path opacity=".40769" filter="url(#filter5267)" fill="#FFF" transform="matrix(.76786 0 0 .84136 -189.22 -408.74)" d="m588.67 410-25.165-16.793 9.083 22.674-16.451-21.722-14.79 23.017 8.2698-26.578-27.145 18.683 23.963-25.396-37.195-9.0475 38.566 1.7458-23.657-26.741 29.059 21.64-1.472-33.497 8.8401 32.545 22.047-26.248-15.527 29.809 36.172-13.514-32.99 20.227 28.876 9.3706-30.247-2.0688z"/>
        </g>
        <path opacity=".40769" filter="url(#filter5267)" fill="#FFF" transform="matrix(.76786 0 0 .84136 126.77 -420.81)" d="m588.67 410-25.165-16.793 9.083 22.674-16.451-21.722-14.79 23.017 8.2698-26.578-27.145 18.683 23.963-25.396-37.195-9.0475 38.566 1.7458-23.657-26.741 29.059 21.64-1.472-33.497 8.8401 32.545 22.047-26.248-15.527 29.809 36.172-13.514-32.99 20.227 28.876 9.3706-30.247-2.0688z"/>
      </g>
      <g transform="translate(-215.24 229.8)">
        <g transform="matrix(.39620 0 0 .39620 460.18 -63.165)">
          <path fill="url(#radialGradient57693)" transform="matrix(.78579 0 0 .86101 -200.07 -418.26)" d="m574.86 399.82-14.967-5.557-13.063 9.1792 0.6599-15.952-12.767-9.5869 15.375-4.3018 5.1726-15.104 8.8424 13.293 15.963 0.25196-9.9101 12.517z"/>
          <path opacity=".40769" filter="url(#filter5267)" fill="#FFF" transform="matrix(.76786 0 0 .84136 -189.22 -408.74)" d="m588.67 410-25.165-16.793 9.083 22.674-16.451-21.722-14.79 23.017 8.2698-26.578-27.145 18.683 23.963-25.396-37.195-9.0475 38.566 1.7458-23.657-26.741 29.059 21.64-1.472-33.497 8.8401 32.545 22.047-26.248-15.527 29.809 36.172-13.514-32.99 20.227 28.876 9.3706-30.247-2.0688z"/>
        </g>
        <path opacity=".40769" filter="url(#filter5267)" fill="#FFF" transform="matrix(.76786 0 0 .84136 126.77 -420.81)" d="m588.67 410-25.165-16.793 9.083 22.674-16.451-21.722-14.79 23.017 8.2698-26.578-27.145 18.683 23.963-25.396-37.195-9.0475 38.566 1.7458-23.657-26.741 29.059 21.64-1.472-33.497 8.8401 32.545 22.047-26.248-15.527 29.809 36.172-13.514-32.99 20.227 28.876 9.3706-30.247-2.0688z"/>
      </g>
      <g transform="translate(-259.6 244.65)">
        <g transform="matrix(.39620 0 0 .39620 460.18 -63.165)">
          <path transform="matrix(.78579 0 0 .86101 -200.07 -418.26)" d="m574.86 399.82-14.967-5.557-13.063 9.1792 0.6599-15.952-12.767-9.5869 15.375-4.3018 5.1726-15.104 8.8424 13.293 15.963 0.25196-9.9101 12.517z" fill="url(#radialGradient57693)"/>
          <path opacity=".40769" filter="url(#filter5267)" fill="#FFF" transform="matrix(.76786 0 0 .84136 -189.22 -408.74)" d="m588.67 410-25.165-16.793 9.083 22.674-16.451-21.722-14.79 23.017 8.2698-26.578-27.145 18.683 23.963-25.396-37.195-9.0475 38.566 1.7458-23.657-26.741 29.059 21.64-1.472-33.497 8.8401 32.545 22.047-26.248-15.527 29.809 36.172-13.514-32.99 20.227 28.876 9.3706-30.247-2.0688z"/>
        </g>
        <path opacity=".40769" filter="url(#filter5267)" fill="#FFF" transform="matrix(.76786 0 0 .84136 126.77 -420.81)" d="m588.67 410-25.165-16.793 9.083 22.674-16.451-21.722-14.79 23.017 8.2698-26.578-27.145 18.683 23.963-25.396-37.195-9.0475 38.566 1.7458-23.657-26.741 29.059 21.64-1.472-33.497 8.8401 32.545 22.047-26.248-15.527 29.809 36.172-13.514-32.99 20.227 28.876 9.3706-30.247-2.0688z"/>
      </g>
      <g transform="translate(-216.56 50.321)">
        <g transform="matrix(.39620 0 0 .39620 460.18 -63.165)">
          <path transform="matrix(.78579 0 0 .86101 -200.07 -418.26)" d="m574.86 399.82-14.967-5.557-13.063 9.1792 0.6599-15.952-12.767-9.5869 15.375-4.3018 5.1726-15.104 8.8424 13.293 15.963 0.25196-9.9101 12.517z" fill="url(#radialGradient57693)"/>
          <path opacity=".40769" filter="url(#filter5267)" fill="#FFF" transform="matrix(.76786 0 0 .84136 -189.22 -408.74)" d="m588.67 410-25.165-16.793 9.083 22.674-16.451-21.722-14.79 23.017 8.2698-26.578-27.145 18.683 23.963-25.396-37.195-9.0475 38.566 1.7458-23.657-26.741 29.059 21.64-1.472-33.497 8.8401 32.545 22.047-26.248-15.527 29.809 36.172-13.514-32.99 20.227 28.876 9.3706-30.247-2.0688z"/>
        </g>
        <path opacity=".40769" filter="url(#filter5267)" fill="#FFF" transform="matrix(.76786 0 0 .84136 126.77 -420.81)" d="m588.67 410-25.165-16.793 9.083 22.674-16.451-21.722-14.79 23.017 8.2698-26.578-27.145 18.683 23.963-25.396-37.195-9.0475 38.566 1.7458-23.657-26.741 29.059 21.64-1.472-33.497 8.8401 32.545 22.047-26.248-15.527 29.809 36.172-13.514-32.99 20.227 28.876 9.3706-30.247-2.0688z"/>
      </g>
      <g transform="translate(-16.308 459.18)">
        <g transform="matrix(.39620 0 0 .39620 460.18 -63.165)">
          <path transform="matrix(.78579 0 0 .86101 -200.07 -418.26)" d="m574.86 399.82-14.967-5.557-13.063 9.1792 0.6599-15.952-12.767-9.5869 15.375-4.3018 5.1726-15.104 8.8424 13.293 15.963 0.25196-9.9101 12.517z" fill="url(#radialGradient57693)"/>
          <path opacity=".40769" filter="url(#filter5267)" fill="#FFF" transform="matrix(.76786 0 0 .84136 -189.22 -408.74)" d="m588.67 410-25.165-16.793 9.083 22.674-16.451-21.722-14.79 23.017 8.2698-26.578-27.145 18.683 23.963-25.396-37.195-9.0475 38.566 1.7458-23.657-26.741 29.059 21.64-1.472-33.497 8.8401 32.545 22.047-26.248-15.527 29.809 36.172-13.514-32.99 20.227 28.876 9.3706-30.247-2.0688z"/>
        </g>
        <path opacity=".40769" filter="url(#filter5267)" fill="#FFF" transform="matrix(.76786 0 0 .84136 126.77 -420.81)" d="m588.67 410-25.165-16.793 9.083 22.674-16.451-21.722-14.79 23.017 8.2698-26.578-27.145 18.683 23.963-25.396-37.195-9.0475 38.566 1.7458-23.657-26.741 29.059 21.64-1.472-33.497 8.8401 32.545 22.047-26.248-15.527 29.809 36.172-13.514-32.99 20.227 28.876 9.3706-30.247-2.0688z"/>
      </g>
      <g transform="translate(-108.58 482.08)">
        <g transform="matrix(.39620 0 0 .39620 460.18 -63.165)">
          <path fill="url(#radialGradient57693)" transform="matrix(.78579 0 0 .86101 -200.07 -418.26)" d="m574.86 399.82-14.967-5.557-13.063 9.1792 0.6599-15.952-12.767-9.5869 15.375-4.3018 5.1726-15.104 8.8424 13.293 15.963 0.25196-9.9101 12.517z"/>
          <path opacity=".40769" filter="url(#filter5267)" fill="#FFF" transform="matrix(.76786 0 0 .84136 -189.22 -408.74)" d="m588.67 410-25.165-16.793 9.083 22.674-16.451-21.722-14.79 23.017 8.2698-26.578-27.145 18.683 23.963-25.396-37.195-9.0475 38.566 1.7458-23.657-26.741 29.059 21.64-1.472-33.497 8.8401 32.545 22.047-26.248-15.527 29.809 36.172-13.514-32.99 20.227 28.876 9.3706-30.247-2.0688z"/>
        </g>
        <path opacity=".40769" filter="url(#filter5267)" fill="#FFF" transform="matrix(.76786 0 0 .84136 126.77 -420.81)" d="m588.67 410-25.165-16.793 9.083 22.674-16.451-21.722-14.79 23.017 8.2698-26.578-27.145 18.683 23.963-25.396-37.195-9.0475 38.566 1.7458-23.657-26.741 29.059 21.64-1.472-33.497 8.8401 32.545 22.047-26.248-15.527 29.809 36.172-13.514-32.99 20.227 28.876 9.3706-30.247-2.0688z"/>
      </g>
      <g transform="translate(-54.483 333.45)">
        <g transform="matrix(.39620 0 0 .39620 460.18 -63.165)">
          <path transform="matrix(.78579 0 0 .86101 -200.07 -418.26)" d="m574.86 399.82-14.967-5.557-13.063 9.1792 0.6599-15.952-12.767-9.5869 15.375-4.3018 5.1726-15.104 8.8424 13.293 15.963 0.25196-9.9101 12.517z" fill="url(#radialGradient57693)"/>
          <path opacity=".40769" filter="url(#filter5267)" fill="#FFF" transform="matrix(.76786 0 0 .84136 -189.22 -408.74)" d="m588.67 410-25.165-16.793 9.083 22.674-16.451-21.722-14.79 23.017 8.2698-26.578-27.145 18.683 23.963-25.396-37.195-9.0475 38.566 1.7458-23.657-26.741 29.059 21.64-1.472-33.497 8.8401 32.545 22.047-26.248-15.527 29.809 36.172-13.514-32.99 20.227 28.876 9.3706-30.247-2.0688z"/>
        </g>
        <path opacity=".40769" filter="url(#filter5267)" fill="#FFF" transform="matrix(.76786 0 0 .84136 126.77 -420.81)" d="m588.67 410-25.165-16.793 9.083 22.674-16.451-21.722-14.79 23.017 8.2698-26.578-27.145 18.683 23.963-25.396-37.195-9.0475 38.566 1.7458-23.657-26.741 29.059 21.64-1.472-33.497 8.8401 32.545 22.047-26.248-15.527 29.809 36.172-13.514-32.99 20.227 28.876 9.3706-30.247-2.0688z"/>
      </g>
      <g transform="translate(-62.51 487.02)">
        <g transform="matrix(.39620 0 0 .39620 460.18 -63.165)">
          <path fill="url(#radialGradient57693)" transform="matrix(.78579 0 0 .86101 -200.07 -418.26)" d="m574.86 399.82-14.967-5.557-13.063 9.1792 0.6599-15.952-12.767-9.5869 15.375-4.3018 5.1726-15.104 8.8424 13.293 15.963 0.25196-9.9101 12.517z"/>
          <path opacity=".40769" filter="url(#filter5267)" fill="#FFF" transform="matrix(.76786 0 0 .84136 -189.22 -408.74)" d="m588.67 410-25.165-16.793 9.083 22.674-16.451-21.722-14.79 23.017 8.2698-26.578-27.145 18.683 23.963-25.396-37.195-9.0475 38.566 1.7458-23.657-26.741 29.059 21.64-1.472-33.497 8.8401 32.545 22.047-26.248-15.527 29.809 36.172-13.514-32.99 20.227 28.876 9.3706-30.247-2.0688z"/>
        </g>
        <path opacity=".40769" filter="url(#filter5267)" fill="#FFF" transform="matrix(.76786 0 0 .84136 126.77 -420.81)" d="m588.67 410-25.165-16.793 9.083 22.674-16.451-21.722-14.79 23.017 8.2698-26.578-27.145 18.683 23.963-25.396-37.195-9.0475 38.566 1.7458-23.657-26.741 29.059 21.64-1.472-33.497 8.8401 32.545 22.047-26.248-15.527 29.809 36.172-13.514-32.99 20.227 28.876 9.3706-30.247-2.0688z"/>
      </g>
      <g transform="translate(31.137 515.31)">
        <g transform="matrix(.39620 0 0 .39620 460.18 -63.165)">
          <path transform="matrix(.78579 0 0 .86101 -200.07 -418.26)" d="m574.86 399.82-14.967-5.557-13.063 9.1792 0.6599-15.952-12.767-9.5869 15.375-4.3018 5.1726-15.104 8.8424 13.293 15.963 0.25196-9.9101 12.517z" fill="url(#radialGradient57693)"/>
          <path opacity=".40769" filter="url(#filter5267)" fill="#FFF" transform="matrix(.76786 0 0 .84136 -189.22 -408.74)" d="m588.67 410-25.165-16.793 9.083 22.674-16.451-21.722-14.79 23.017 8.2698-26.578-27.145 18.683 23.963-25.396-37.195-9.0475 38.566 1.7458-23.657-26.741 29.059 21.64-1.472-33.497 8.8401 32.545 22.047-26.248-15.527 29.809 36.172-13.514-32.99 20.227 28.876 9.3706-30.247-2.0688z"/>
        </g>
        <path opacity=".40769" filter="url(#filter5267)" fill="#FFF" transform="matrix(.76786 0 0 .84136 126.77 -420.81)" d="m588.67 410-25.165-16.793 9.083 22.674-16.451-21.722-14.79 23.017 8.2698-26.578-27.145 18.683 23.963-25.396-37.195-9.0475 38.566 1.7458-23.657-26.741 29.059 21.64-1.472-33.497 8.8401 32.545 22.047-26.248-15.527 29.809 36.172-13.514-32.99 20.227 28.876 9.3706-30.247-2.0688z"/>
      </g>
      <g transform="translate(-9.8227 497.27)">
        <g transform="matrix(.39620 0 0 .39620 460.18 -63.165)">
          <path transform="matrix(.78579 0 0 .86101 -200.07 -418.26)" d="m574.86 399.82-14.967-5.557-13.063 9.1792 0.6599-15.952-12.767-9.5869 15.375-4.3018 5.1726-15.104 8.8424 13.293 15.963 0.25196-9.9101 12.517z" fill="url(#radialGradient57693)"/>
          <path opacity=".40769" filter="url(#filter5267)" fill="#FFF" transform="matrix(.76786 0 0 .84136 -189.22 -408.74)" d="m588.67 410-25.165-16.793 9.083 22.674-16.451-21.722-14.79 23.017 8.2698-26.578-27.145 18.683 23.963-25.396-37.195-9.0475 38.566 1.7458-23.657-26.741 29.059 21.64-1.472-33.497 8.8401 32.545 22.047-26.248-15.527 29.809 36.172-13.514-32.99 20.227 28.876 9.3706-30.247-2.0688z"/>
        </g>
        <path opacity=".40769" filter="url(#filter5267)" fill="#FFF" transform="matrix(.76786 0 0 .84136 126.77 -420.81)" d="m588.67 410-25.165-16.793 9.083 22.674-16.451-21.722-14.79 23.017 8.2698-26.578-27.145 18.683 23.963-25.396-37.195-9.0475 38.566 1.7458-23.657-26.741 29.059 21.64-1.472-33.497 8.8401 32.545 22.047-26.248-15.527 29.809 36.172-13.514-32.99 20.227 28.876 9.3706-30.247-2.0688z"/>
      </g>
      <g transform="translate(-162.27 479.31)">
        <g transform="matrix(.39620 0 0 .39620 460.18 -63.165)">
          <path fill="url(#radialGradient57693)" transform="matrix(.78579 0 0 .86101 -200.07 -418.26)" d="m574.86 399.82-14.967-5.557-13.063 9.1792 0.6599-15.952-12.767-9.5869 15.375-4.3018 5.1726-15.104 8.8424 13.293 15.963 0.25196-9.9101 12.517z"/>
          <path opacity=".40769" filter="url(#filter5267)" fill="#FFF" transform="matrix(.76786 0 0 .84136 -189.22 -408.74)" d="m588.67 410-25.165-16.793 9.083 22.674-16.451-21.722-14.79 23.017 8.2698-26.578-27.145 18.683 23.963-25.396-37.195-9.0475 38.566 1.7458-23.657-26.741 29.059 21.64-1.472-33.497 8.8401 32.545 22.047-26.248-15.527 29.809 36.172-13.514-32.99 20.227 28.876 9.3706-30.247-2.0688z"/>
        </g>
        <path opacity=".40769" filter="url(#filter5267)" fill="#FFF" transform="matrix(.76786 0 0 .84136 126.77 -420.81)" d="m588.67 410-25.165-16.793 9.083 22.674-16.451-21.722-14.79 23.017 8.2698-26.578-27.145 18.683 23.963-25.396-37.195-9.0475 38.566 1.7458-23.657-26.741 29.059 21.64-1.472-33.497 8.8401 32.545 22.047-26.248-15.527 29.809 36.172-13.514-32.99 20.227 28.876 9.3706-30.247-2.0688z"/>
      </g>
      <g transform="translate(-257.76 469.45)">
        <g transform="matrix(.39620 0 0 .39620 460.18 -63.165)">
          <path transform="matrix(.78579 0 0 .86101 -200.07 -418.26)" d="m574.86 399.82-14.967-5.557-13.063 9.1792 0.6599-15.952-12.767-9.5869 15.375-4.3018 5.1726-15.104 8.8424 13.293 15.963 0.25196-9.9101 12.517z" fill="url(#radialGradient57693)"/>
          <path opacity=".40769" filter="url(#filter5267)" fill="#FFF" transform="matrix(.76786 0 0 .84136 -189.22 -408.74)" d="m588.67 410-25.165-16.793 9.083 22.674-16.451-21.722-14.79 23.017 8.2698-26.578-27.145 18.683 23.963-25.396-37.195-9.0475 38.566 1.7458-23.657-26.741 29.059 21.64-1.472-33.497 8.8401 32.545 22.047-26.248-15.527 29.809 36.172-13.514-32.99 20.227 28.876 9.3706-30.247-2.0688z"/>
        </g>
        <path opacity=".40769" filter="url(#filter5267)" fill="#FFF" transform="matrix(.76786 0 0 .84136 126.77 -420.81)" d="m588.67 410-25.165-16.793 9.083 22.674-16.451-21.722-14.79 23.017 8.2698-26.578-27.145 18.683 23.963-25.396-37.195-9.0475 38.566 1.7458-23.657-26.741 29.059 21.64-1.472-33.497 8.8401 32.545 22.047-26.248-15.527 29.809 36.172-13.514-32.99 20.227 28.876 9.3706-30.247-2.0688z"/>
      </g>
      <g transform="translate(-306.66 466.64)">
        <g transform="matrix(.39620 0 0 .39620 460.18 -63.165)">
          <path fill="url(#radialGradient57693)" transform="matrix(.78579 0 0 .86101 -200.07 -418.26)" d="m574.86 399.82-14.967-5.557-13.063 9.1792 0.6599-15.952-12.767-9.5869 15.375-4.3018 5.1726-15.104 8.8424 13.293 15.963 0.25196-9.9101 12.517z"/>
          <path opacity=".40769" filter="url(#filter5267)" fill="#FFF" transform="matrix(.76786 0 0 .84136 -189.22 -408.74)" d="m588.67 410-25.165-16.793 9.083 22.674-16.451-21.722-14.79 23.017 8.2698-26.578-27.145 18.683 23.963-25.396-37.195-9.0475 38.566 1.7458-23.657-26.741 29.059 21.64-1.472-33.497 8.8401 32.545 22.047-26.248-15.527 29.809 36.172-13.514-32.99 20.227 28.876 9.3706-30.247-2.0688z"/>
        </g>
        <path opacity=".40769" filter="url(#filter5267)" fill="#FFF" transform="matrix(.76786 0 0 .84136 126.77 -420.81)" d="m588.67 410-25.165-16.793 9.083 22.674-16.451-21.722-14.79 23.017 8.2698-26.578-27.145 18.683 23.963-25.396-37.195-9.0475 38.566 1.7458-23.657-26.741 29.059 21.64-1.472-33.497 8.8401 32.545 22.047-26.248-15.527 29.809 36.172-13.514-32.99 20.227 28.876 9.3706-30.247-2.0688z"/>
      </g>
      <g transform="translate(-380.36 445.33)">
        <g transform="matrix(.39620 0 0 .39620 460.18 -63.165)">
          <path transform="matrix(.78579 0 0 .86101 -200.07 -418.26)" d="m574.86 399.82-14.967-5.557-13.063 9.1792 0.6599-15.952-12.767-9.5869 15.375-4.3018 5.1726-15.104 8.8424 13.293 15.963 0.25196-9.9101 12.517z" fill="url(#radialGradient57693)"/>
          <path opacity=".40769" filter="url(#filter5267)" fill="#FFF" transform="matrix(.76786 0 0 .84136 -189.22 -408.74)" d="m588.67 410-25.165-16.793 9.083 22.674-16.451-21.722-14.79 23.017 8.2698-26.578-27.145 18.683 23.963-25.396-37.195-9.0475 38.566 1.7458-23.657-26.741 29.059 21.64-1.472-33.497 8.8401 32.545 22.047-26.248-15.527 29.809 36.172-13.514-32.99 20.227 28.876 9.3706-30.247-2.0688z"/>
        </g>
        <path opacity=".40769" filter="url(#filter5267)" fill="#FFF" transform="matrix(.76786 0 0 .84136 126.77 -420.81)" d="m588.67 410-25.165-16.793 9.083 22.674-16.451-21.722-14.79 23.017 8.2698-26.578-27.145 18.683 23.963-25.396-37.195-9.0475 38.566 1.7458-23.657-26.741 29.059 21.64-1.472-33.497 8.8401 32.545 22.047-26.248-15.527 29.809 36.172-13.514-32.99 20.227 28.876 9.3706-30.247-2.0688z"/>
      </g>
      <g transform="translate(-142.53 304.83)">
        <g transform="matrix(.39620 0 0 .39620 460.18 -63.165)">
          <path fill="url(#radialGradient57693)" transform="matrix(.78579 0 0 .86101 -200.07 -418.26)" d="m574.86 399.82-14.967-5.557-13.063 9.1792 0.6599-15.952-12.767-9.5869 15.375-4.3018 5.1726-15.104 8.8424 13.293 15.963 0.25196-9.9101 12.517z"/>
          <path opacity=".40769" filter="url(#filter5267)" fill="#FFF" transform="matrix(.76786 0 0 .84136 -189.22 -408.74)" d="m588.67 410-25.165-16.793 9.083 22.674-16.451-21.722-14.79 23.017 8.2698-26.578-27.145 18.683 23.963-25.396-37.195-9.0475 38.566 1.7458-23.657-26.741 29.059 21.64-1.472-33.497 8.8401 32.545 22.047-26.248-15.527 29.809 36.172-13.514-32.99 20.227 28.876 9.3706-30.247-2.0688z"/>
        </g>
        <path opacity=".40769" filter="url(#filter5267)" fill="#FFF" transform="matrix(.76786 0 0 .84136 126.77 -420.81)" d="m588.67 410-25.165-16.793 9.083 22.674-16.451-21.722-14.79 23.017 8.2698-26.578-27.145 18.683 23.963-25.396-37.195-9.0475 38.566 1.7458-23.657-26.741 29.059 21.64-1.472-33.497 8.8401 32.545 22.047-26.248-15.527 29.809 36.172-13.514-32.99 20.227 28.876 9.3706-30.247-2.0688z"/>
      </g>
      <g transform="translate(-332.81 402.69)">
        <g transform="matrix(.39620 0 0 .39620 460.18 -63.165)">
          <path transform="matrix(.78579 0 0 .86101 -200.07 -418.26)" d="m574.86 399.82-14.967-5.557-13.063 9.1792 0.6599-15.952-12.767-9.5869 15.375-4.3018 5.1726-15.104 8.8424 13.293 15.963 0.25196-9.9101 12.517z" fill="url(#radialGradient57693)"/>
          <path opacity=".40769" filter="url(#filter5267)" fill="#FFF" transform="matrix(.76786 0 0 .84136 -189.22 -408.74)" d="m588.67 410-25.165-16.793 9.083 22.674-16.451-21.722-14.79 23.017 8.2698-26.578-27.145 18.683 23.963-25.396-37.195-9.0475 38.566 1.7458-23.657-26.741 29.059 21.64-1.472-33.497 8.8401 32.545 22.047-26.248-15.527 29.809 36.172-13.514-32.99 20.227 28.876 9.3706-30.247-2.0688z"/>
        </g>
        <path opacity=".40769" filter="url(#filter5267)" fill="#FFF" transform="matrix(.76786 0 0 .84136 126.77 -420.81)" d="m588.67 410-25.165-16.793 9.083 22.674-16.451-21.722-14.79 23.017 8.2698-26.578-27.145 18.683 23.963-25.396-37.195-9.0475 38.566 1.7458-23.657-26.741 29.059 21.64-1.472-33.497 8.8401 32.545 22.047-26.248-15.527 29.809 36.172-13.514-32.99 20.227 28.876 9.3706-30.247-2.0688z"/>
      </g>
      <g transform="translate(-231.33 292.12)">
        <g transform="matrix(.39620 0 0 .39620 460.18 -63.165)">
          <path fill="url(#radialGradient57693)" transform="matrix(.78579 0 0 .86101 -200.07 -418.26)" d="m574.86 399.82-14.967-5.557-13.063 9.1792 0.6599-15.952-12.767-9.5869 15.375-4.3018 5.1726-15.104 8.8424 13.293 15.963 0.25196-9.9101 12.517z"/>
          <path opacity=".40769" filter="url(#filter5267)" fill="#FFF" transform="matrix(.76786 0 0 .84136 -189.22 -408.74)" d="m588.67 410-25.165-16.793 9.083 22.674-16.451-21.722-14.79 23.017 8.2698-26.578-27.145 18.683 23.963-25.396-37.195-9.0475 38.566 1.7458-23.657-26.741 29.059 21.64-1.472-33.497 8.8401 32.545 22.047-26.248-15.527 29.809 36.172-13.514-32.99 20.227 28.876 9.3706-30.247-2.0688z"/>
        </g>
        <path opacity=".40769" filter="url(#filter5267)" fill="#FFF" transform="matrix(.76786 0 0 .84136 126.77 -420.81)" d="m588.67 410-25.165-16.793 9.083 22.674-16.451-21.722-14.79 23.017 8.2698-26.578-27.145 18.683 23.963-25.396-37.195-9.0475 38.566 1.7458-23.657-26.741 29.059 21.64-1.472-33.497 8.8401 32.545 22.047-26.248-15.527 29.809 36.172-13.514-32.99 20.227 28.876 9.3706-30.247-2.0688z"/>
      </g>
      <g transform="translate(-185.84 300.5)">
        <g transform="matrix(.39620 0 0 .39620 460.18 -63.165)">
          <path transform="matrix(.78579 0 0 .86101 -200.07 -418.26)" d="m574.86 399.82-14.967-5.557-13.063 9.1792 0.6599-15.952-12.767-9.5869 15.375-4.3018 5.1726-15.104 8.8424 13.293 15.963 0.25196-9.9101 12.517z" fill="url(#radialGradient57693)"/>
          <path opacity=".40769" filter="url(#filter5267)" fill="#FFF" transform="matrix(.76786 0 0 .84136 -189.22 -408.74)" d="m588.67 410-25.165-16.793 9.083 22.674-16.451-21.722-14.79 23.017 8.2698-26.578-27.145 18.683 23.963-25.396-37.195-9.0475 38.566 1.7458-23.657-26.741 29.059 21.64-1.472-33.497 8.8401 32.545 22.047-26.248-15.527 29.809 36.172-13.514-32.99 20.227 28.876 9.3706-30.247-2.0688z"/>
        </g>
        <path opacity=".40769" filter="url(#filter5267)" fill="#FFF" transform="matrix(.76786 0 0 .84136 126.77 -420.81)" d="m588.67 410-25.165-16.793 9.083 22.674-16.451-21.722-14.79 23.017 8.2698-26.578-27.145 18.683 23.963-25.396-37.195-9.0475 38.566 1.7458-23.657-26.741 29.059 21.64-1.472-33.497 8.8401 32.545 22.047-26.248-15.527 29.809 36.172-13.514-32.99 20.227 28.876 9.3706-30.247-2.0688z"/>
      </g>
      <g transform="translate(-90.943 317.29)">
        <g transform="matrix(.39620 0 0 .39620 460.18 -63.165)">
          <path fill="url(#radialGradient57693)" transform="matrix(.78579 0 0 .86101 -200.07 -418.26)" d="m574.86 399.82-14.967-5.557-13.063 9.1792 0.6599-15.952-12.767-9.5869 15.375-4.3018 5.1726-15.104 8.8424 13.293 15.963 0.25196-9.9101 12.517z"/>
          <path opacity=".40769" filter="url(#filter5267)" fill="#FFF" transform="matrix(.76786 0 0 .84136 -189.22 -408.74)" d="m588.67 410-25.165-16.793 9.083 22.674-16.451-21.722-14.79 23.017 8.2698-26.578-27.145 18.683 23.963-25.396-37.195-9.0475 38.566 1.7458-23.657-26.741 29.059 21.64-1.472-33.497 8.8401 32.545 22.047-26.248-15.527 29.809 36.172-13.514-32.99 20.227 28.876 9.3706-30.247-2.0688z"/>
        </g>
        <path opacity=".40769" filter="url(#filter5267)" fill="#FFF" transform="matrix(.76786 0 0 .84136 126.77 -420.81)" d="m588.67 410-25.165-16.793 9.083 22.674-16.451-21.722-14.79 23.017 8.2698-26.578-27.145 18.683 23.963-25.396-37.195-9.0475 38.566 1.7458-23.657-26.741 29.059 21.64-1.472-33.497 8.8401 32.545 22.047-26.248-15.527 29.809 36.172-13.514-32.99 20.227 28.876 9.3706-30.247-2.0688z"/>
      </g>
      <g transform="translate(-342.76 357.23)">
        <g transform="matrix(.39620 0 0 .39620 460.18 -63.165)">
          <path fill="url(#radialGradient57693)" transform="matrix(.78579 0 0 .86101 -200.07 -418.26)" d="m574.86 399.82-14.967-5.557-13.063 9.1792 0.6599-15.952-12.767-9.5869 15.375-4.3018 5.1726-15.104 8.8424 13.293 15.963 0.25196-9.9101 12.517z"/>
          <path opacity=".40769" filter="url(#filter5267)" fill="#FFF" transform="matrix(.76786 0 0 .84136 -189.22 -408.74)" d="m588.67 410-25.165-16.793 9.083 22.674-16.451-21.722-14.79 23.017 8.2698-26.578-27.145 18.683 23.963-25.396-37.195-9.0475 38.566 1.7458-23.657-26.741 29.059 21.64-1.472-33.497 8.8401 32.545 22.047-26.248-15.527 29.809 36.172-13.514-32.99 20.227 28.876 9.3706-30.247-2.0688z"/>
        </g>
        <path opacity=".40769" filter="url(#filter5267)" fill="#FFF" transform="matrix(.76786 0 0 .84136 126.77 -420.81)" d="m588.67 410-25.165-16.793 9.083 22.674-16.451-21.722-14.79 23.017 8.2698-26.578-27.145 18.683 23.963-25.396-37.195-9.0475 38.566 1.7458-23.657-26.741 29.059 21.64-1.472-33.497 8.8401 32.545 22.047-26.248-15.527 29.809 36.172-13.514-32.99 20.227 28.876 9.3706-30.247-2.0688z"/>
      </g>
      <g transform="translate(-214.82 130.86)">
        <g transform="matrix(.39620 0 0 .39620 460.18 -63.165)">
          <path transform="matrix(.78579 0 0 .86101 -200.07 -418.26)" d="m574.86 399.82-14.967-5.557-13.063 9.1792 0.6599-15.952-12.767-9.5869 15.375-4.3018 5.1726-15.104 8.8424 13.293 15.963 0.25196-9.9101 12.517z" fill="url(#radialGradient57693)"/>
          <path opacity=".40769" filter="url(#filter5267)" fill="#FFF" transform="matrix(.76786 0 0 .84136 -189.22 -408.74)" d="m588.67 410-25.165-16.793 9.083 22.674-16.451-21.722-14.79 23.017 8.2698-26.578-27.145 18.683 23.963-25.396-37.195-9.0475 38.566 1.7458-23.657-26.741 29.059 21.64-1.472-33.497 8.8401 32.545 22.047-26.248-15.527 29.809 36.172-13.514-32.99 20.227 28.876 9.3706-30.247-2.0688z"/>
        </g>
        <path opacity=".40769" filter="url(#filter5267)" fill="#FFF" transform="matrix(.76786 0 0 .84136 126.77 -420.81)" d="m588.67 410-25.165-16.793 9.083 22.674-16.451-21.722-14.79 23.017 8.2698-26.578-27.145 18.683 23.963-25.396-37.195-9.0475 38.566 1.7458-23.657-26.741 29.059 21.64-1.472-33.497 8.8401 32.545 22.047-26.248-15.527 29.809 36.172-13.514-32.99 20.227 28.876 9.3706-30.247-2.0688z"/>
      </g>
      <g transform="translate(-84.666 152.6)">
        <g transform="matrix(.39620 0 0 .39620 460.18 -63.165)">
          <path fill="url(#radialGradient57693)" transform="matrix(.78579 0 0 .86101 -200.07 -418.26)" d="m574.86 399.82-14.967-5.557-13.063 9.1792 0.6599-15.952-12.767-9.5869 15.375-4.3018 5.1726-15.104 8.8424 13.293 15.963 0.25196-9.9101 12.517z"/>
          <path opacity=".40769" filter="url(#filter5267)" fill="#FFF" transform="matrix(.76786 0 0 .84136 -189.22 -408.74)" d="m588.67 410-25.165-16.793 9.083 22.674-16.451-21.722-14.79 23.017 8.2698-26.578-27.145 18.683 23.963-25.396-37.195-9.0475 38.566 1.7458-23.657-26.741 29.059 21.64-1.472-33.497 8.8401 32.545 22.047-26.248-15.527 29.809 36.172-13.514-32.99 20.227 28.876 9.3706-30.247-2.0688z"/>
        </g>
        <path opacity=".40769" filter="url(#filter5267)" fill="#FFF" transform="matrix(.76786 0 0 .84136 126.77 -420.81)" d="m588.67 410-25.165-16.793 9.083 22.674-16.451-21.722-14.79 23.017 8.2698-26.578-27.145 18.683 23.963-25.396-37.195-9.0475 38.566 1.7458-23.657-26.741 29.059 21.64-1.472-33.497 8.8401 32.545 22.047-26.248-15.527 29.809 36.172-13.514-32.99 20.227 28.876 9.3706-30.247-2.0688z"/>
      </g>
      <g transform="translate(-206.16 476.38)">
        <g transform="matrix(.39620 0 0 .39620 460.18 -63.165)">
          <path fill="url(#radialGradient57693)" transform="matrix(.78579 0 0 .86101 -200.07 -418.26)" d="m574.86 399.82-14.967-5.557-13.063 9.1792 0.6599-15.952-12.767-9.5869 15.375-4.3018 5.1726-15.104 8.8424 13.293 15.963 0.25196-9.9101 12.517z"/>
          <path opacity=".40769" filter="url(#filter5267)" fill="#FFF" transform="matrix(.76786 0 0 .84136 -189.22 -408.74)" d="m588.67 410-25.165-16.793 9.083 22.674-16.451-21.722-14.79 23.017 8.2698-26.578-27.145 18.683 23.963-25.396-37.195-9.0475 38.566 1.7458-23.657-26.741 29.059 21.64-1.472-33.497 8.8401 32.545 22.047-26.248-15.527 29.809 36.172-13.514-32.99 20.227 28.876 9.3706-30.247-2.0688z"/>
        </g>
        <path opacity=".40769" filter="url(#filter5267)" fill="#FFF" transform="matrix(.76786 0 0 .84136 126.77 -420.81)" d="m588.67 410-25.165-16.793 9.083 22.674-16.451-21.722-14.79 23.017 8.2698-26.578-27.145 18.683 23.963-25.396-37.195-9.0475 38.566 1.7458-23.657-26.741 29.059 21.64-1.472-33.497 8.8401 32.545 22.047-26.248-15.527 29.809 36.172-13.514-32.99 20.227 28.876 9.3706-30.247-2.0688z"/>
      </g>
      <g transform="translate(-104.8 370.45)">
        <g transform="matrix(.39620 0 0 .39620 460.18 -63.165)">
          <path transform="matrix(.78579 0 0 .86101 -200.07 -418.26)" d="m574.86 399.82-14.967-5.557-13.063 9.1792 0.6599-15.952-12.767-9.5869 15.375-4.3018 5.1726-15.104 8.8424 13.293 15.963 0.25196-9.9101 12.517z" fill="url(#radialGradient57693)"/>
          <path opacity=".40769" filter="url(#filter5267)" fill="#FFF" transform="matrix(.76786 0 0 .84136 -189.22 -408.74)" d="m588.67 410-25.165-16.793 9.083 22.674-16.451-21.722-14.79 23.017 8.2698-26.578-27.145 18.683 23.963-25.396-37.195-9.0475 38.566 1.7458-23.657-26.741 29.059 21.64-1.472-33.497 8.8401 32.545 22.047-26.248-15.527 29.809 36.172-13.514-32.99 20.227 28.876 9.3706-30.247-2.0688z"/>
        </g>
        <path opacity=".40769" filter="url(#filter5267)" fill="#FFF" transform="matrix(.76786 0 0 .84136 126.77 -420.81)" d="m588.67 410-25.165-16.793 9.083 22.674-16.451-21.722-14.79 23.017 8.2698-26.578-27.145 18.683 23.963-25.396-37.195-9.0475 38.566 1.7458-23.657-26.741 29.059 21.64-1.472-33.497 8.8401 32.545 22.047-26.248-15.527 29.809 36.172-13.514-32.99 20.227 28.876 9.3706-30.247-2.0688z"/>
      </g>
      <g transform="translate(-156.75 69.976)">
        <g transform="matrix(.39620 0 0 .39620 460.18 -63.165)">
          <path fill="url(#radialGradient57693)" transform="matrix(.78579 0 0 .86101 -200.07 -418.26)" d="m574.86 399.82-14.967-5.557-13.063 9.1792 0.6599-15.952-12.767-9.5869 15.375-4.3018 5.1726-15.104 8.8424 13.293 15.963 0.25196-9.9101 12.517z"/>
          <path opacity=".40769" filter="url(#filter5267)" fill="#FFF" transform="matrix(.76786 0 0 .84136 -189.22 -408.74)" d="m588.67 410-25.165-16.793 9.083 22.674-16.451-21.722-14.79 23.017 8.2698-26.578-27.145 18.683 23.963-25.396-37.195-9.0475 38.566 1.7458-23.657-26.741 29.059 21.64-1.472-33.497 8.8401 32.545 22.047-26.248-15.527 29.809 36.172-13.514-32.99 20.227 28.876 9.3706-30.247-2.0688z"/>
        </g>
        <path opacity=".40769" filter="url(#filter5267)" fill="#FFF" transform="matrix(.76786 0 0 .84136 126.77 -420.81)" d="m588.67 410-25.165-16.793 9.083 22.674-16.451-21.722-14.79 23.017 8.2698-26.578-27.145 18.683 23.963-25.396-37.195-9.0475 38.566 1.7458-23.657-26.741 29.059 21.64-1.472-33.497 8.8401 32.545 22.047-26.248-15.527 29.809 36.172-13.514-32.99 20.227 28.876 9.3706-30.247-2.0688z"/>
      </g>
      <g transform="translate(-244.39 183.51)">
        <g transform="matrix(.39620 0 0 .39620 460.18 -63.165)">
          <path transform="matrix(.78579 0 0 .86101 -200.07 -418.26)" d="m574.86 399.82-14.967-5.557-13.063 9.1792 0.6599-15.952-12.767-9.5869 15.375-4.3018 5.1726-15.104 8.8424 13.293 15.963 0.25196-9.9101 12.517z" fill="url(#radialGradient57693)"/>
          <path opacity=".40769" filter="url(#filter5267)" fill="#FFF" transform="matrix(.76786 0 0 .84136 -189.22 -408.74)" d="m588.67 410-25.165-16.793 9.083 22.674-16.451-21.722-14.79 23.017 8.2698-26.578-27.145 18.683 23.963-25.396-37.195-9.0475 38.566 1.7458-23.657-26.741 29.059 21.64-1.472-33.497 8.8401 32.545 22.047-26.248-15.527 29.809 36.172-13.514-32.99 20.227 28.876 9.3706-30.247-2.0688z"/>
        </g>
        <path opacity=".40769" filter="url(#filter5267)" fill="#FFF" transform="matrix(.76786 0 0 .84136 126.77 -420.81)" d="m588.67 410-25.165-16.793 9.083 22.674-16.451-21.722-14.79 23.017 8.2698-26.578-27.145 18.683 23.963-25.396-37.195-9.0475 38.566 1.7458-23.657-26.741 29.059 21.64-1.472-33.497 8.8401 32.545 22.047-26.248-15.527 29.809 36.172-13.514-32.99 20.227 28.876 9.3706-30.247-2.0688z"/>
      </g>
      <g transform="translate(-153.93 380.82)">
        <g transform="matrix(.39620 0 0 .39620 460.18 -63.165)">
          <path transform="matrix(.78579 0 0 .86101 -200.07 -418.26)" d="m574.86 399.82-14.967-5.557-13.063 9.1792 0.6599-15.952-12.767-9.5869 15.375-4.3018 5.1726-15.104 8.8424 13.293 15.963 0.25196-9.9101 12.517z" fill="url(#radialGradient57693)"/>
          <path opacity=".40769" filter="url(#filter5267)" fill="#FFF" transform="matrix(.76786 0 0 .84136 -189.22 -408.74)" d="m588.67 410-25.165-16.793 9.083 22.674-16.451-21.722-14.79 23.017 8.2698-26.578-27.145 18.683 23.963-25.396-37.195-9.0475 38.566 1.7458-23.657-26.741 29.059 21.64-1.472-33.497 8.8401 32.545 22.047-26.248-15.527 29.809 36.172-13.514-32.99 20.227 28.876 9.3706-30.247-2.0688z"/>
        </g>
        <path opacity=".40769" filter="url(#filter5267)" fill="#FFF" transform="matrix(.76786 0 0 .84136 126.77 -420.81)" d="m588.67 410-25.165-16.793 9.083 22.674-16.451-21.722-14.79 23.017 8.2698-26.578-27.145 18.683 23.963-25.396-37.195-9.0475 38.566 1.7458-23.657-26.741 29.059 21.64-1.472-33.497 8.8401 32.545 22.047-26.248-15.527 29.809 36.172-13.514-32.99 20.227 28.876 9.3706-30.247-2.0688z"/>
      </g>
      <g transform="translate(-215.5 387.92)">
        <g transform="matrix(.39620 0 0 .39620 460.18 -63.165)">
          <path fill="url(#radialGradient57693)" transform="matrix(.78579 0 0 .86101 -200.07 -418.26)" d="m574.86 399.82-14.967-5.557-13.063 9.1792 0.6599-15.952-12.767-9.5869 15.375-4.3018 5.1726-15.104 8.8424 13.293 15.963 0.25196-9.9101 12.517z"/>
          <path opacity=".40769" filter="url(#filter5267)" fill="#FFF" transform="matrix(.76786 0 0 .84136 -189.22 -408.74)" d="m588.67 410-25.165-16.793 9.083 22.674-16.451-21.722-14.79 23.017 8.2698-26.578-27.145 18.683 23.963-25.396-37.195-9.0475 38.566 1.7458-23.657-26.741 29.059 21.64-1.472-33.497 8.8401 32.545 22.047-26.248-15.527 29.809 36.172-13.514-32.99 20.227 28.876 9.3706-30.247-2.0688z"/>
        </g>
        <path opacity=".40769" filter="url(#filter5267)" fill="#FFF" transform="matrix(.76786 0 0 .84136 126.77 -420.81)" d="m588.67 410-25.165-16.793 9.083 22.674-16.451-21.722-14.79 23.017 8.2698-26.578-27.145 18.683 23.963-25.396-37.195-9.0475 38.566 1.7458-23.657-26.741 29.059 21.64-1.472-33.497 8.8401 32.545 22.047-26.248-15.527 29.809 36.172-13.514-32.99 20.227 28.876 9.3706-30.247-2.0688z"/>
      </g>
      <g transform="translate(-278.19 397.98)">
        <g transform="matrix(.39620 0 0 .39620 460.18 -63.165)">
          <path transform="matrix(.78579 0 0 .86101 -200.07 -418.26)" d="m574.86 399.82-14.967-5.557-13.063 9.1792 0.6599-15.952-12.767-9.5869 15.375-4.3018 5.1726-15.104 8.8424 13.293 15.963 0.25196-9.9101 12.517z" fill="url(#radialGradient57693)"/>
          <path opacity=".40769" filter="url(#filter5267)" fill="#FFF" transform="matrix(.76786 0 0 .84136 -189.22 -408.74)" d="m588.67 410-25.165-16.793 9.083 22.674-16.451-21.722-14.79 23.017 8.2698-26.578-27.145 18.683 23.963-25.396-37.195-9.0475 38.566 1.7458-23.657-26.741 29.059 21.64-1.472-33.497 8.8401 32.545 22.047-26.248-15.527 29.809 36.172-13.514-32.99 20.227 28.876 9.3706-30.247-2.0688z"/>
        </g>
        <path opacity=".40769" filter="url(#filter5267)" fill="#FFF" transform="matrix(.76786 0 0 .84136 126.77 -420.81)" d="m588.67 410-25.165-16.793 9.083 22.674-16.451-21.722-14.79 23.017 8.2698-26.578-27.145 18.683 23.963-25.396-37.195-9.0475 38.566 1.7458-23.657-26.741 29.059 21.64-1.472-33.497 8.8401 32.545 22.047-26.248-15.527 29.809 36.172-13.514-32.99 20.227 28.876 9.3706-30.247-2.0688z"/>
      </g>
      <g transform="translate(-379.7 417.51)">
        <g transform="matrix(.39620 0 0 .39620 460.18 -63.165)">
          <path fill="url(#radialGradient57693)" transform="matrix(.78579 0 0 .86101 -200.07 -418.26)" d="m574.86 399.82-14.967-5.557-13.063 9.1792 0.6599-15.952-12.767-9.5869 15.375-4.3018 5.1726-15.104 8.8424 13.293 15.963 0.25196-9.9101 12.517z"/>
          <path opacity=".40769" filter="url(#filter5267)" fill="#FFF" transform="matrix(.76786 0 0 .84136 -189.22 -408.74)" d="m588.67 410-25.165-16.793 9.083 22.674-16.451-21.722-14.79 23.017 8.2698-26.578-27.145 18.683 23.963-25.396-37.195-9.0475 38.566 1.7458-23.657-26.741 29.059 21.64-1.472-33.497 8.8401 32.545 22.047-26.248-15.527 29.809 36.172-13.514-32.99 20.227 28.876 9.3706-30.247-2.0688z"/>
        </g>
        <path opacity=".40769" filter="url(#filter5267)" fill="#FFF" transform="matrix(.76786 0 0 .84136 126.77 -420.81)" d="m588.67 410-25.165-16.793 9.083 22.674-16.451-21.722-14.79 23.017 8.2698-26.578-27.145 18.683 23.963-25.396-37.195-9.0475 38.566 1.7458-23.657-26.741 29.059 21.64-1.472-33.497 8.8401 32.545 22.047-26.248-15.527 29.809 36.172-13.514-32.99 20.227 28.876 9.3706-30.247-2.0688z"/>
      </g>
      <g transform="translate(-196.15 189.46)">
        <g transform="matrix(.39620 0 0 .39620 460.18 -63.165)">
          <path transform="matrix(.78579 0 0 .86101 -200.07 -418.26)" d="m574.86 399.82-14.967-5.557-13.063 9.1792 0.6599-15.952-12.767-9.5869 15.375-4.3018 5.1726-15.104 8.8424 13.293 15.963 0.25196-9.9101 12.517z" fill="url(#radialGradient57693)"/>
          <path opacity=".40769" filter="url(#filter5267)" fill="#FFF" transform="matrix(.76786 0 0 .84136 -189.22 -408.74)" d="m588.67 410-25.165-16.793 9.083 22.674-16.451-21.722-14.79 23.017 8.2698-26.578-27.145 18.683 23.963-25.396-37.195-9.0475 38.566 1.7458-23.657-26.741 29.059 21.64-1.472-33.497 8.8401 32.545 22.047-26.248-15.527 29.809 36.172-13.514-32.99 20.227 28.876 9.3706-30.247-2.0688z"/>
        </g>
        <path opacity=".40769" filter="url(#filter5267)" fill="#FFF" transform="matrix(.76786 0 0 .84136 126.77 -420.81)" d="m588.67 410-25.165-16.793 9.083 22.674-16.451-21.722-14.79 23.017 8.2698-26.578-27.145 18.683 23.963-25.396-37.195-9.0475 38.566 1.7458-23.657-26.741 29.059 21.64-1.472-33.497 8.8401 32.545 22.047-26.248-15.527 29.809 36.172-13.514-32.99 20.227 28.876 9.3706-30.247-2.0688z"/>
      </g>
      <g transform="translate(-277.65 284.55)">
        <g transform="matrix(.39620 0 0 .39620 460.18 -63.165)">
          <path fill="url(#radialGradient57693)" transform="matrix(.78579 0 0 .86101 -200.07 -418.26)" d="m574.86 399.82-14.967-5.557-13.063 9.1792 0.6599-15.952-12.767-9.5869 15.375-4.3018 5.1726-15.104 8.8424 13.293 15.963 0.25196-9.9101 12.517z"/>
          <path opacity=".40769" filter="url(#filter5267)" fill="#FFF" transform="matrix(.76786 0 0 .84136 -189.22 -408.74)" d="m588.67 410-25.165-16.793 9.083 22.674-16.451-21.722-14.79 23.017 8.2698-26.578-27.145 18.683 23.963-25.396-37.195-9.0475 38.566 1.7458-23.657-26.741 29.059 21.64-1.472-33.497 8.8401 32.545 22.047-26.248-15.527 29.809 36.172-13.514-32.99 20.227 28.876 9.3706-30.247-2.0688z"/>
        </g>
        <path opacity=".40769" filter="url(#filter5267)" fill="#FFF" transform="matrix(.76786 0 0 .84136 126.77 -420.81)" d="m588.67 410-25.165-16.793 9.083 22.674-16.451-21.722-14.79 23.017 8.2698-26.578-27.145 18.683 23.963-25.396-37.195-9.0475 38.566 1.7458-23.657-26.741 29.059 21.64-1.472-33.497 8.8401 32.545 22.047-26.248-15.527 29.809 36.172-13.514-32.99 20.227 28.876 9.3706-30.247-2.0688z"/>
      </g>
      <g transform="translate(-108.66 101.28)">
        <g transform="matrix(.39620 0 0 .39620 460.18 -63.165)">
          <path transform="matrix(.78579 0 0 .86101 -200.07 -418.26)" d="m574.86 399.82-14.967-5.557-13.063 9.1792 0.6599-15.952-12.767-9.5869 15.375-4.3018 5.1726-15.104 8.8424 13.293 15.963 0.25196-9.9101 12.517z" fill="url(#radialGradient57693)"/>
          <path opacity=".40769" filter="url(#filter5267)" fill="#FFF" transform="matrix(.76786 0 0 .84136 -189.22 -408.74)" d="m588.67 410-25.165-16.793 9.083 22.674-16.451-21.722-14.79 23.017 8.2698-26.578-27.145 18.683 23.963-25.396-37.195-9.0475 38.566 1.7458-23.657-26.741 29.059 21.64-1.472-33.497 8.8401 32.545 22.047-26.248-15.527 29.809 36.172-13.514-32.99 20.227 28.876 9.3706-30.247-2.0688z"/>
        </g>
        <path opacity=".40769" filter="url(#filter5267)" fill="#FFF" transform="matrix(.76786 0 0 .84136 126.77 -420.81)" d="m588.67 410-25.165-16.793 9.083 22.674-16.451-21.722-14.79 23.017 8.2698-26.578-27.145 18.683 23.963-25.396-37.195-9.0475 38.566 1.7458-23.657-26.741 29.059 21.64-1.472-33.497 8.8401 32.545 22.047-26.248-15.527 29.809 36.172-13.514-32.99 20.227 28.876 9.3706-30.247-2.0688z"/>
      </g>
      <g transform="translate(-129.12 272.33)">
        <g transform="matrix(.39620 0 0 .39620 460.18 -63.165)">
          <path fill="url(#radialGradient57693)" transform="matrix(.78579 0 0 .86101 -200.07 -418.26)" d="m574.86 399.82-14.967-5.557-13.063 9.1792 0.6599-15.952-12.767-9.5869 15.375-4.3018 5.1726-15.104 8.8424 13.293 15.963 0.25196-9.9101 12.517z"/>
          <path opacity=".40769" filter="url(#filter5267)" fill="#FFF" transform="matrix(.76786 0 0 .84136 -189.22 -408.74)" d="m588.67 410-25.165-16.793 9.083 22.674-16.451-21.722-14.79 23.017 8.2698-26.578-27.145 18.683 23.963-25.396-37.195-9.0475 38.566 1.7458-23.657-26.741 29.059 21.64-1.472-33.497 8.8401 32.545 22.047-26.248-15.527 29.809 36.172-13.514-32.99 20.227 28.876 9.3706-30.247-2.0688z"/>
        </g>
        <path opacity=".40769" filter="url(#filter5267)" fill="#FFF" transform="matrix(.76786 0 0 .84136 126.77 -420.81)" d="m588.67 410-25.165-16.793 9.083 22.674-16.451-21.722-14.79 23.017 8.2698-26.578-27.145 18.683 23.963-25.396-37.195-9.0475 38.566 1.7458-23.657-26.741 29.059 21.64-1.472-33.497 8.8401 32.545 22.047-26.248-15.527 29.809 36.172-13.514-32.99 20.227 28.876 9.3706-30.247-2.0688z"/>
      </g>
      <g transform="translate(-128.37 -22.556)">
        <g transform="matrix(.39620 0 0 .39620 460.18 -63.165)">
          <path fill="url(#radialGradient57693)" transform="matrix(.78579 0 0 .86101 -200.07 -418.26)" d="m574.86 399.82-14.967-5.557-13.063 9.1792 0.6599-15.952-12.767-9.5869 15.375-4.3018 5.1726-15.104 8.8424 13.293 15.963 0.25196-9.9101 12.517z"/>
          <path opacity=".40769" filter="url(#filter5267)" fill="#FFF" transform="matrix(.76786 0 0 .84136 -189.22 -408.74)" d="m588.67 410-25.165-16.793 9.083 22.674-16.451-21.722-14.79 23.017 8.2698-26.578-27.145 18.683 23.963-25.396-37.195-9.0475 38.566 1.7458-23.657-26.741 29.059 21.64-1.472-33.497 8.8401 32.545 22.047-26.248-15.527 29.809 36.172-13.514-32.99 20.227 28.876 9.3706-30.247-2.0688z"/>
        </g>
        <path opacity=".40769" filter="url(#filter5267)" fill="#FFF" transform="matrix(.76786 0 0 .84136 126.77 -420.81)" d="m588.67 410-25.165-16.793 9.083 22.674-16.451-21.722-14.79 23.017 8.2698-26.578-27.145 18.683 23.963-25.396-37.195-9.0475 38.566 1.7458-23.657-26.741 29.059 21.64-1.472-33.497 8.8401 32.545 22.047-26.248-15.527 29.809 36.172-13.514-32.99 20.227 28.876 9.3706-30.247-2.0688z"/>
      </g>
      <g transform="translate(-175.29 45.786)">
        <g transform="matrix(.39620 0 0 .39620 460.18 -63.165)">
          <path fill="url(#radialGradient57693)" transform="matrix(.78579 0 0 .86101 -200.07 -418.26)" d="m574.86 399.82-14.967-5.557-13.063 9.1792 0.6599-15.952-12.767-9.5869 15.375-4.3018 5.1726-15.104 8.8424 13.293 15.963 0.25196-9.9101 12.517z"/>
          <path opacity=".40769" filter="url(#filter5267)" fill="#FFF" transform="matrix(.76786 0 0 .84136 -189.22 -408.74)" d="m588.67 410-25.165-16.793 9.083 22.674-16.451-21.722-14.79 23.017 8.2698-26.578-27.145 18.683 23.963-25.396-37.195-9.0475 38.566 1.7458-23.657-26.741 29.059 21.64-1.472-33.497 8.8401 32.545 22.047-26.248-15.527 29.809 36.172-13.514-32.99 20.227 28.876 9.3706-30.247-2.0688z"/>
        </g>
        <path opacity=".40769" filter="url(#filter5267)" fill="#FFF" transform="matrix(.76786 0 0 .84136 126.77 -420.81)" d="m588.67 410-25.165-16.793 9.083 22.674-16.451-21.722-14.79 23.017 8.2698-26.578-27.145 18.683 23.963-25.396-37.195-9.0475 38.566 1.7458-23.657-26.741 29.059 21.64-1.472-33.497 8.8401 32.545 22.047-26.248-15.527 29.809 36.172-13.514-32.99 20.227 28.876 9.3706-30.247-2.0688z"/>
      </g>
      <g transform="translate(-77.921 435.46)">
        <g transform="matrix(.39620 0 0 .39620 460.18 -63.165)">
          <path transform="matrix(.78579 0 0 .86101 -200.07 -418.26)" d="m574.86 399.82-14.967-5.557-13.063 9.1792 0.6599-15.952-12.767-9.5869 15.375-4.3018 5.1726-15.104 8.8424 13.293 15.963 0.25196-9.9101 12.517z" fill="url(#radialGradient57693)"/>
          <path opacity=".40769" filter="url(#filter5267)" fill="#FFF" transform="matrix(.76786 0 0 .84136 -189.22 -408.74)" d="m588.67 410-25.165-16.793 9.083 22.674-16.451-21.722-14.79 23.017 8.2698-26.578-27.145 18.683 23.963-25.396-37.195-9.0475 38.566 1.7458-23.657-26.741 29.059 21.64-1.472-33.497 8.8401 32.545 22.047-26.248-15.527 29.809 36.172-13.514-32.99 20.227 28.876 9.3706-30.247-2.0688z"/>
        </g>
        <path opacity=".40769" filter="url(#filter5267)" fill="#FFF" transform="matrix(.76786 0 0 .84136 126.77 -420.81)" d="m588.67 410-25.165-16.793 9.083 22.674-16.451-21.722-14.79 23.017 8.2698-26.578-27.145 18.683 23.963-25.396-37.195-9.0475 38.566 1.7458-23.657-26.741 29.059 21.64-1.472-33.497 8.8401 32.545 22.047-26.248-15.527 29.809 36.172-13.514-32.99 20.227 28.876 9.3706-30.247-2.0688z"/>
      </g>
      <g transform="translate(-170.31 349.18)">
        <g transform="matrix(.39620 0 0 .39620 460.18 -63.165)">
          <path fill="url(#radialGradient57693)" transform="matrix(.78579 0 0 .86101 -200.07 -418.26)" d="m574.86 399.82-14.967-5.557-13.063 9.1792 0.6599-15.952-12.767-9.5869 15.375-4.3018 5.1726-15.104 8.8424 13.293 15.963 0.25196-9.9101 12.517z"/>
          <path opacity=".40769" filter="url(#filter5267)" fill="#FFF" transform="matrix(.76786 0 0 .84136 -189.22 -408.74)" d="m588.67 410-25.165-16.793 9.083 22.674-16.451-21.722-14.79 23.017 8.2698-26.578-27.145 18.683 23.963-25.396-37.195-9.0475 38.566 1.7458-23.657-26.741 29.059 21.64-1.472-33.497 8.8401 32.545 22.047-26.248-15.527 29.809 36.172-13.514-32.99 20.227 28.876 9.3706-30.247-2.0688z"/>
        </g>
        <path opacity=".40769" filter="url(#filter5267)" fill="#FFF" transform="matrix(.76786 0 0 .84136 126.77 -420.81)" d="m588.67 410-25.165-16.793 9.083 22.674-16.451-21.722-14.79 23.017 8.2698-26.578-27.145 18.683 23.963-25.396-37.195-9.0475 38.566 1.7458-23.657-26.741 29.059 21.64-1.472-33.497 8.8401 32.545 22.047-26.248-15.527 29.809 36.172-13.514-32.99 20.227 28.876 9.3706-30.247-2.0688z"/>
      </g>
      <g transform="translate(-288.59 343.91)">
        <g transform="matrix(.39620 0 0 .39620 460.18 -63.165)">
          <path transform="matrix(.78579 0 0 .86101 -200.07 -418.26)" d="m574.86 399.82-14.967-5.557-13.063 9.1792 0.6599-15.952-12.767-9.5869 15.375-4.3018 5.1726-15.104 8.8424 13.293 15.963 0.25196-9.9101 12.517z" fill="url(#radialGradient57693)"/>
          <path opacity=".40769" filter="url(#filter5267)" fill="#FFF" transform="matrix(.76786 0 0 .84136 -189.22 -408.74)" d="m588.67 410-25.165-16.793 9.083 22.674-16.451-21.722-14.79 23.017 8.2698-26.578-27.145 18.683 23.963-25.396-37.195-9.0475 38.566 1.7458-23.657-26.741 29.059 21.64-1.472-33.497 8.8401 32.545 22.047-26.248-15.527 29.809 36.172-13.514-32.99 20.227 28.876 9.3706-30.247-2.0688z"/>
        </g>
        <path opacity=".40769" filter="url(#filter5267)" fill="#FFF" transform="matrix(.76786 0 0 .84136 126.77 -420.81)" d="m588.67 410-25.165-16.793 9.083 22.674-16.451-21.722-14.79 23.017 8.2698-26.578-27.145 18.683 23.963-25.396-37.195-9.0475 38.566 1.7458-23.657-26.741 29.059 21.64-1.472-33.497 8.8401 32.545 22.047-26.248-15.527 29.809 36.172-13.514-32.99 20.227 28.876 9.3706-30.247-2.0688z"/>
      </g>
      <g transform="translate(-148.09 433.95)">
        <g transform="matrix(.39620 0 0 .39620 460.18 -63.165)">
          <path fill="url(#radialGradient57693)" transform="matrix(.78579 0 0 .86101 -200.07 -418.26)" d="m574.86 399.82-14.967-5.557-13.063 9.1792 0.6599-15.952-12.767-9.5869 15.375-4.3018 5.1726-15.104 8.8424 13.293 15.963 0.25196-9.9101 12.517z"/>
          <path opacity=".40769" filter="url(#filter5267)" fill="#FFF" transform="matrix(.76786 0 0 .84136 -189.22 -408.74)" d="m588.67 410-25.165-16.793 9.083 22.674-16.451-21.722-14.79 23.017 8.2698-26.578-27.145 18.683 23.963-25.396-37.195-9.0475 38.566 1.7458-23.657-26.741 29.059 21.64-1.472-33.497 8.8401 32.545 22.047-26.248-15.527 29.809 36.172-13.514-32.99 20.227 28.876 9.3706-30.247-2.0688z"/>
        </g>
        <path opacity=".40769" filter="url(#filter5267)" fill="#FFF" transform="matrix(.76786 0 0 .84136 126.77 -420.81)" d="m588.67 410-25.165-16.793 9.083 22.674-16.451-21.722-14.79 23.017 8.2698-26.578-27.145 18.683 23.963-25.396-37.195-9.0475 38.566 1.7458-23.657-26.741 29.059 21.64-1.472-33.497 8.8401 32.545 22.047-26.248-15.527 29.809 36.172-13.514-32.99 20.227 28.876 9.3706-30.247-2.0688z"/>
      </g>
      <g transform="translate(-235.54 438.65)">
        <g transform="matrix(.39620 0 0 .39620 460.18 -63.165)">
          <path transform="matrix(.78579 0 0 .86101 -200.07 -418.26)" d="m574.86 399.82-14.967-5.557-13.063 9.1792 0.6599-15.952-12.767-9.5869 15.375-4.3018 5.1726-15.104 8.8424 13.293 15.963 0.25196-9.9101 12.517z" fill="url(#radialGradient57693)"/>
          <path opacity=".40769" filter="url(#filter5267)" fill="#FFF" transform="matrix(.76786 0 0 .84136 -189.22 -408.74)" d="m588.67 410-25.165-16.793 9.083 22.674-16.451-21.722-14.79 23.017 8.2698-26.578-27.145 18.683 23.963-25.396-37.195-9.0475 38.566 1.7458-23.657-26.741 29.059 21.64-1.472-33.497 8.8401 32.545 22.047-26.248-15.527 29.809 36.172-13.514-32.99 20.227 28.876 9.3706-30.247-2.0688z"/>
        </g>
        <path opacity=".40769" filter="url(#filter5267)" fill="#FFF" transform="matrix(.76786 0 0 .84136 126.77 -420.81)" d="m588.67 410-25.165-16.793 9.083 22.674-16.451-21.722-14.79 23.017 8.2698-26.578-27.145 18.683 23.963-25.396-37.195-9.0475 38.566 1.7458-23.657-26.741 29.059 21.64-1.472-33.497 8.8401 32.545 22.047-26.248-15.527 29.809 36.172-13.514-32.99 20.227 28.876 9.3706-30.247-2.0688z"/>
      </g>
      <g transform="translate(-346.85 459.94)">
        <g transform="matrix(.39620 0 0 .39620 460.18 -63.165)">
          <path fill="url(#radialGradient57693)" transform="matrix(.78579 0 0 .86101 -200.07 -418.26)" d="m574.86 399.82-14.967-5.557-13.063 9.1792 0.6599-15.952-12.767-9.5869 15.375-4.3018 5.1726-15.104 8.8424 13.293 15.963 0.25196-9.9101 12.517z"/>
          <path opacity=".40769" filter="url(#filter5267)" fill="#FFF" transform="matrix(.76786 0 0 .84136 -189.22 -408.74)" d="m588.67 410-25.165-16.793 9.083 22.674-16.451-21.722-14.79 23.017 8.2698-26.578-27.145 18.683 23.963-25.396-37.195-9.0475 38.566 1.7458-23.657-26.741 29.059 21.64-1.472-33.497 8.8401 32.545 22.047-26.248-15.527 29.809 36.172-13.514-32.99 20.227 28.876 9.3706-30.247-2.0688z"/>
        </g>
        <path opacity=".40769" filter="url(#filter5267)" fill="#FFF" transform="matrix(.76786 0 0 .84136 126.77 -420.81)" d="m588.67 410-25.165-16.793 9.083 22.674-16.451-21.722-14.79 23.017 8.2698-26.578-27.145 18.683 23.963-25.396-37.195-9.0475 38.566 1.7458-23.657-26.741 29.059 21.64-1.472-33.497 8.8401 32.545 22.047-26.248-15.527 29.809 36.172-13.514-32.99 20.227 28.876 9.3706-30.247-2.0688z"/>
      </g>
      <g transform="translate(-236.46 345.59)">
        <g transform="matrix(.39620 0 0 .39620 460.18 -63.165)">
          <path transform="matrix(.78579 0 0 .86101 -200.07 -418.26)" d="m574.86 399.82-14.967-5.557-13.063 9.1792 0.6599-15.952-12.767-9.5869 15.375-4.3018 5.1726-15.104 8.8424 13.293 15.963 0.25196-9.9101 12.517z" fill="url(#radialGradient57693)"/>
          <path opacity=".40769" filter="url(#filter5267)" fill="#FFF" transform="matrix(.76786 0 0 .84136 -189.22 -408.74)" d="m588.67 410-25.165-16.793 9.083 22.674-16.451-21.722-14.79 23.017 8.2698-26.578-27.145 18.683 23.963-25.396-37.195-9.0475 38.566 1.7458-23.657-26.741 29.059 21.64-1.472-33.497 8.8401 32.545 22.047-26.248-15.527 29.809 36.172-13.514-32.99 20.227 28.876 9.3706-30.247-2.0688z"/>
        </g>
        <path opacity=".40769" filter="url(#filter5267)" fill="#FFF" transform="matrix(.76786 0 0 .84136 126.77 -420.81)" d="m588.67 410-25.165-16.793 9.083 22.674-16.451-21.722-14.79 23.017 8.2698-26.578-27.145 18.683 23.963-25.396-37.195-9.0475 38.566 1.7458-23.657-26.741 29.059 21.64-1.472-33.497 8.8401 32.545 22.047-26.248-15.527 29.809 36.172-13.514-32.99 20.227 28.876 9.3706-30.247-2.0688z"/>
      </g>
      <g transform="translate(-46.08 396.11)">
        <g transform="matrix(.39620 0 0 .39620 460.18 -63.165)">
          <path transform="matrix(.78579 0 0 .86101 -200.07 -418.26)" d="m574.86 399.82-14.967-5.557-13.063 9.1792 0.6599-15.952-12.767-9.5869 15.375-4.3018 5.1726-15.104 8.8424 13.293 15.963 0.25196-9.9101 12.517z" fill="url(#radialGradient57693)"/>
          <path opacity=".40769" filter="url(#filter5267)" fill="#FFF" transform="matrix(.76786 0 0 .84136 -189.22 -408.74)" d="m588.67 410-25.165-16.793 9.083 22.674-16.451-21.722-14.79 23.017 8.2698-26.578-27.145 18.683 23.963-25.396-37.195-9.0475 38.566 1.7458-23.657-26.741 29.059 21.64-1.472-33.497 8.8401 32.545 22.047-26.248-15.527 29.809 36.172-13.514-32.99 20.227 28.876 9.3706-30.247-2.0688z"/>
        </g>
        <path opacity=".40769" filter="url(#filter5267)" fill="#FFF" transform="matrix(.76786 0 0 .84136 126.77 -420.81)" d="m588.67 410-25.165-16.793 9.083 22.674-16.451-21.722-14.79 23.017 8.2698-26.578-27.145 18.683 23.963-25.396-37.195-9.0475 38.566 1.7458-23.657-26.741 29.059 21.64-1.472-33.497 8.8401 32.545 22.047-26.248-15.527 29.809 36.172-13.514-32.99 20.227 28.876 9.3706-30.247-2.0688z"/>
      </g>
      <g transform="translate(-120.72 148.04)">
        <g transform="matrix(.39620 0 0 .39620 460.18 -63.165)">
          <path fill="url(#radialGradient57693)" transform="matrix(.78579 0 0 .86101 -200.07 -418.26)" d="m574.86 399.82-14.967-5.557-13.063 9.1792 0.6599-15.952-12.767-9.5869 15.375-4.3018 5.1726-15.104 8.8424 13.293 15.963 0.25196-9.9101 12.517z"/>
          <path opacity=".40769" filter="url(#filter5267)" fill="#FFF" transform="matrix(.76786 0 0 .84136 -189.22 -408.74)" d="m588.67 410-25.165-16.793 9.083 22.674-16.451-21.722-14.79 23.017 8.2698-26.578-27.145 18.683 23.963-25.396-37.195-9.0475 38.566 1.7458-23.657-26.741 29.059 21.64-1.472-33.497 8.8401 32.545 22.047-26.248-15.527 29.809 36.172-13.514-32.99 20.227 28.876 9.3706-30.247-2.0688z"/>
        </g>
        <path opacity=".40769" filter="url(#filter5267)" fill="#FFF" transform="matrix(.76786 0 0 .84136 126.77 -420.81)" d="m588.67 410-25.165-16.793 9.083 22.674-16.451-21.722-14.79 23.017 8.2698-26.578-27.145 18.683 23.963-25.396-37.195-9.0475 38.566 1.7458-23.657-26.741 29.059 21.64-1.472-33.497 8.8401 32.545 22.047-26.248-15.527 29.809 36.172-13.514-32.99 20.227 28.876 9.3706-30.247-2.0688z"/>
      </g>
      <g transform="translate(-154.93 106.7)">
        <g transform="matrix(.39620 0 0 .39620 460.18 -63.165)">
          <path transform="matrix(.78579 0 0 .86101 -200.07 -418.26)" d="m574.86 399.82-14.967-5.557-13.063 9.1792 0.6599-15.952-12.767-9.5869 15.375-4.3018 5.1726-15.104 8.8424 13.293 15.963 0.25196-9.9101 12.517z" fill="url(#radialGradient57693)"/>
          <path opacity=".40769" filter="url(#filter5267)" fill="#FFF" transform="matrix(.76786 0 0 .84136 -189.22 -408.74)" d="m588.67 410-25.165-16.793 9.083 22.674-16.451-21.722-14.79 23.017 8.2698-26.578-27.145 18.683 23.963-25.396-37.195-9.0475 38.566 1.7458-23.657-26.741 29.059 21.64-1.472-33.497 8.8401 32.545 22.047-26.248-15.527 29.809 36.172-13.514-32.99 20.227 28.876 9.3706-30.247-2.0688z"/>
        </g>
        <path opacity=".40769" filter="url(#filter5267)" fill="#FFF" transform="matrix(.76786 0 0 .84136 126.77 -420.81)" d="m588.67 410-25.165-16.793 9.083 22.674-16.451-21.722-14.79 23.017 8.2698-26.578-27.145 18.683 23.963-25.396-37.195-9.0475 38.566 1.7458-23.657-26.741 29.059 21.64-1.472-33.497 8.8401 32.545 22.047-26.248-15.527 29.809 36.172-13.514-32.99 20.227 28.876 9.3706-30.247-2.0688z"/>
      </g>
      <g transform="translate(-258.22 16.039)">
        <path opacity=".40769" filter="url(#filter5267)" fill="#FFF" transform="matrix(2.0216 0 0 2.2151 -454.11 -1046.3)" d="m588.67 410-25.165-16.793 9.083 22.674-16.451-21.722-14.79 23.017 8.2698-26.578-27.145 18.683 23.963-25.396-37.195-9.0475 38.566 1.7458-23.657-26.741 29.059 21.64-1.472-33.497 8.8401 32.545 22.047-26.248-15.527 29.809 36.172-13.514-32.99 20.227 28.876 9.3706-30.247-2.0688z"/>
        <path filter="url(#filter34899)" transform="matrix(1.1078 0 0 1.2139 57.968 -659.55)" d="m574.86 399.82-14.967-5.557-13.063 9.1792 0.6599-15.952-12.767-9.5869 15.375-4.3018 5.1726-15.104 8.8424 13.293 15.963 0.25196-9.9101 12.517z" fill="url(#radialGradient57693)"/>
        <path opacity=".40769" filter="url(#filter5267)" fill="#FFF" transform="matrix(1.0041 0 0 1.1003 116.81 -614.14)" d="m588.67 410-25.165-16.793 9.083 22.674-16.451-21.722-14.79 23.017 8.2698-26.578-27.145 18.683 23.963-25.396-37.195-9.0475 38.566 1.7458-23.657-26.741 29.059 21.64-1.472-33.497 8.8401 32.545 22.047-26.248-15.527 29.809 36.172-13.514-32.99 20.227 28.876 9.3706-30.247-2.0688z"/>
      </g>
    </g>
  </g>
  <metadata>
    <rdf:RDF>
      <cc:Work>
        <dc:format>image/svg+xml</dc:format>
        <dc:type rdf:resource="http://purl.org/dc/dcmitype/StillImage"/>
        <cc:license rdf:resource="http://creativecommons.org/licenses/publicdomain/"/>
        <dc:publisher>
          <cc:Agent rdf:about="http://openclipart.org/">
            <dc:title>Openclipart</dc:title>
          </cc:Agent>
        </dc:publisher>
        <dc:title>Modern Christmas Tree 4</dc:title>
        <dc:date>2011-12-18T09:06:25</dc:date>
        <dc:description>A revamped version of the modern Christmas Tree. Added a more realistic effect by adding more lights and more sparkle. The Png preview does not show the top star, but it does render it correctly when clicking the PNG button. Enjoy!</dc:description>
        <dc:source>http://openclipart.org/detail/166317/modern-christmas-tree-4-by-merlin2525</dc:source>
        <dc:creator>
          <cc:Agent>
            <dc:title>Merlin2525</dc:title>
          </cc:Agent>
        </dc:creator>
        <dc:subject>
          <rdf:Bag>
            <rdf:li>arbol</rdf:li>
            <rdf:li>&#xC3;&#xA1;rbol</rdf:li>
            <rdf:li>arbre</rdf:li>
            <rdf:li>argent</rdf:li>
            <rdf:li>black</rdf:li>
            <rdf:li>bright</rdf:li>
            <rdf:li>brillante</rdf:li>
            <rdf:li>brillar</rdf:li>
            <rdf:li>card</rdf:li>
            <rdf:li>carte</rdf:li>
            <rdf:li>christmas</rdf:li>
            <rdf:li>cinta</rdf:li>
            <rdf:li>clip art</rdf:li>
            <rdf:li>clipart</rdf:li>
            <rdf:li>d'argent</rdf:li>
            <rdf:li>de</rdf:li>
            <rdf:li>eclat</rdf:li>
            <rdf:li>estrella</rdf:li>
            <rdf:li>estrellas</rdf:li>
            <rdf:li>etoiles</rdf:li>
            <rdf:li>glow</rdf:li>
            <rdf:li>gold</rdf:li>
            <rdf:li>holidays</rdf:li>
            <rdf:li>les</rdf:li>
            <rdf:li>lights</rdf:li>
            <rdf:li>luces</rdf:li>
            <rdf:li>lueur</rdf:li>
            <rdf:li>lumieres</rdf:li>
            <rdf:li>modern</rdf:li>
            <rdf:li>moderne</rdf:li>
            <rdf:li>moderno</rdf:li>
            <rdf:li>moire</rdf:li>
            <rdf:li>navidad</rdf:li>
            <rdf:li>negro</rdf:li>
            <rdf:li>noel</rdf:li>
            <rdf:li>or</rdf:li>
            <rdf:li>oro</rdf:li>
            <rdf:li>pascua</rdf:li>
            <rdf:li>plata</rdf:li>
            <rdf:li>ribbon</rdf:li>
            <rdf:li>ruban</rdf:li>
            <rdf:li>silver</rdf:li>
            <rdf:li>sparkle</rdf:li>
            <rdf:li>star</rdf:li>
            <rdf:li>stars</rdf:li>
            <rdf:li>tarjeta</rdf:li>
            <rdf:li>tree</rdf:li>
            <rdf:li>vacaciones</rdf:li>
            <rdf:li>vacances</rdf:li>
            <rdf:li>x-mas</rdf:li>
            <rdf:li>xmas</rdf:li>
          </rdf:Bag>
        </dc:subject>
      </cc:Work>
      <cc:License rdf:about="http://creativecommons.org/licenses/publicdomain/">
        <cc:permits rdf:resource="http://creativecommons.org/ns#Reproduction"/>
        <cc:permits rdf:resource="http://creativecommons.org/ns#Distribution"/>
        <cc:permits rdf:resource="http://creativecommons.org/ns#DerivativeWorks"/>
      </cc:License>
    </rdf:RDF>
  </metadata>
</svg>
