<?xml version="1.0" encoding="utf-8"?>
<!-- Generator: Adobe Illustrator 16.0.0, SVG Export Plug-In . SVG Version: 6.00 Build 0)  -->
<!DOCTYPE svg PUBLIC "-//W3C//DTD SVG 1.1//EN" "http://www.w3.org/Graphics/SVG/1.1/DTD/svg11.dtd">
<svg version="1.1" id="Calque_1" xmlns="http://www.w3.org/2000/svg" xmlns:xlink="http://www.w3.org/1999/xlink" x="0px" y="0px"
	 width="244.171px" height="71.521px" viewBox="0 0 244.171 71.521" enable-background="new 0 0 244.171 71.521"
	 xml:space="preserve">
<g>
	<path d="M31.5,16.44c-1-1.92-2.34-3.33-4.02-4.23s-3.72-1.05-6.12-0.45c-0.96,0.24-1.851,0.69-2.67,1.35
		c-0.82,0.66-1.51,1.451-2.07,2.37c-0.561,0.92-0.97,1.9-1.23,2.94c-0.261,1.041-0.33,2.061-0.21,3.06c0.12,1,0.459,1.92,1.02,2.76
		c0.56,0.84,1.38,1.521,2.46,2.04c0.879,0.4,1.71,0.531,2.49,0.39c0.78-0.14,1.46-0.439,2.04-0.9c0.58-0.459,1.029-1.029,1.35-1.71
		c0.32-0.68,0.48-1.359,0.48-2.04c1.239-0.08,2.13,0.17,2.67,0.75c0.54,0.58,0.77,1.39,0.69,2.43c-0.12,1.4-0.75,2.58-1.89,3.54
		c-1.14,0.96-2.471,1.5-3.99,1.62c-0.88,0.081-1.761,0.01-2.64-0.21c-0.88-0.219-1.701-0.589-2.46-1.11
		c-1.281-0.879-2.271-2.049-2.97-3.51c-0.701-1.459-1.11-3-1.23-4.62c-0.12-1.62,0.039-3.22,0.48-4.8c0.439-1.58,1.14-2.93,2.1-4.05
		c1.32-1.52,2.859-2.61,4.62-3.27c1.76-0.66,3.549-0.939,5.37-0.84c1.82,0.1,3.56,0.53,5.22,1.29c1.659,0.76,3.03,1.82,4.11,3.18
		l9.54-4.38l0.84,1.86c-0.88,0.28-1.75,0.93-2.61,1.95c-0.861,1.02-1.671,2.15-2.43,3.39c-0.76,1.24-1.42,2.45-1.98,3.63
		c-0.561,1.18-0.96,2.03-1.2,2.55c-1.44,2.961-2.78,5.961-4.02,9c-1.241,3.041-2.58,6.06-4.02,9.06
		c-0.681,1.401-1.541,2.931-2.58,4.59c-1.041,1.661-2.211,3.261-3.51,4.8c-1.3,1.539-2.721,2.919-4.26,4.14
		c-1.541,1.22-3.141,2.09-4.8,2.61c-1.66,0.519-3.36,0.589-5.1,0.21C7.23,55.449,5.5,54.439,3.78,52.8
		c-1.12-1.08-1.93-2.34-2.43-3.78c-0.5-1.44-0.741-2.94-0.72-4.5c0.02-1.56,0.27-3.09,0.75-4.59s1.12-2.85,1.92-4.05
		c0.8-1.16,1.75-2.16,2.85-3c1.1-0.84,2.229-1.479,3.39-1.92c1.16-0.439,2.29-0.68,3.39-0.72c1.1-0.04,2.07,0.06,2.91,0.3
		c0.92,0.28,1.73,0.741,2.43,1.38c0.699,0.641,1.17,1.42,1.41,2.34c0.279,0.96,0.219,1.521-0.18,1.68
		c-0.4,0.16-1.041,0.021-1.92-0.42c-0.72-0.36-1.641-0.59-2.76-0.69c-1.12-0.1-2.44,0.051-3.96,0.45c-0.8,0.201-1.6,0.57-2.4,1.11
		c-0.801,0.54-1.54,1.21-2.22,2.01c-0.801,0.921-1.451,1.95-1.95,3.09C3.79,42.63,3.48,43.8,3.36,45c-0.12,1.2-0.03,2.35,0.27,3.45
		c0.3,1.1,0.87,2.07,1.71,2.91c0.84,0.879,1.94,1.43,3.3,1.65c1.359,0.22,2.64,0.11,3.84-0.33c1.4-0.48,2.7-1.26,3.9-2.34
		c1.2-1.08,2.31-2.349,3.33-3.81c1.02-1.459,1.97-3.03,2.85-4.71c0.879-1.68,1.689-3.36,2.43-5.04c0.739-1.68,1.44-3.3,2.1-4.86
		c0.66-1.56,1.29-2.94,1.89-4.14c1.359-2.679,2.82-5.299,4.38-7.86c1.56-2.559,3.24-4.82,5.04-6.78L31.5,16.44z M6.06,19.2
		c0.159,0.2,0.439,0.351,0.84,0.45c0.399,0.101,1.28,0.15,2.64,0.15c-1.32,0.041-2.19,0.111-2.61,0.21C6.51,20.11,6.2,20.241,6,20.4
		c-0.16,0.201-0.28,0.531-0.36,0.99C5.56,21.85,5.5,22.84,5.46,24.36c0-0.759-0.021-1.37-0.06-1.83
		c-0.04-0.459-0.081-0.84-0.12-1.14c-0.04-0.3-0.1-0.52-0.18-0.66c-0.081-0.14-0.161-0.25-0.24-0.33c-0.201-0.159-0.5-0.29-0.9-0.39
		c-0.4-0.099-1.281-0.169-2.64-0.21c1.28,0,2.14-0.049,2.58-0.15c0.44-0.099,0.759-0.25,0.96-0.45c0.16-0.16,0.29-0.45,0.39-0.87
		c0.1-0.42,0.17-1.29,0.21-2.61c0.04,1.32,0.1,2.19,0.18,2.61C5.72,18.75,5.859,19.041,6.06,19.2z M6.06,60.66
		c0.08,0.08,0.229,0.159,0.45,0.24c0.22,0.08,0.729,0.14,1.53,0.18c-0.72,0-1.21,0.039-1.47,0.12C6.31,61.28,6.12,61.38,6,61.5
		c-0.081,0.12-0.16,0.32-0.24,0.6c-0.081,0.279-0.12,0.879-0.12,1.8c-0.041-0.92-0.09-1.521-0.15-1.8c-0.06-0.28-0.15-0.48-0.27-0.6
		c-0.12-0.12-0.311-0.22-0.57-0.3c-0.261-0.081-0.771-0.12-1.53-0.12c0.8-0.041,1.32-0.101,1.56-0.18
		c0.24-0.081,0.42-0.16,0.54-0.24c0.08-0.12,0.159-0.3,0.24-0.54c0.08-0.24,0.14-0.76,0.18-1.56c0,0.759,0.039,1.27,0.12,1.53
		C5.84,60.35,5.94,60.54,6.06,60.66z M26.46,55.98c0.08,0.08,0.229,0.159,0.45,0.24c0.219,0.08,0.729,0.14,1.53,0.18
		c-0.72,0-1.21,0.04-1.47,0.12c-0.261,0.08-0.45,0.18-0.57,0.3c-0.081,0.08-0.141,0.18-0.18,0.3c-0.041,0.12-0.07,0.319-0.09,0.6
		c-0.021,0.279-0.04,0.669-0.06,1.17c-0.021,0.5-0.03,1.17-0.03,2.01c0-0.84-0.01-1.51-0.03-2.01c-0.021-0.501-0.04-0.891-0.06-1.17
		c-0.021-0.281-0.06-0.48-0.12-0.6s-0.13-0.22-0.21-0.3c-0.12-0.12-0.311-0.22-0.57-0.3c-0.26-0.081-0.771-0.12-1.53-0.12
		c0.8-0.04,1.32-0.1,1.56-0.18c0.24-0.081,0.42-0.161,0.54-0.24c0.08-0.12,0.159-0.3,0.24-0.54c0.08-0.24,0.14-0.76,0.18-1.56
		c0,0.759,0.04,1.27,0.12,1.53C26.24,55.67,26.34,55.86,26.46,55.98z"/>
	<path d="M55.56,33.3l0.78,1.62c-1.08,0.681-2.17,1.2-3.27,1.56c-1.101,0.36-2.17,0.581-3.21,0.66c-0.081,0.32-0.19,0.621-0.33,0.9
		c-0.141,0.28-0.27,0.58-0.39,0.9c-0.72,1.521-1.61,3.021-2.67,4.5c-1.06,1.48-2.21,2.74-3.45,3.78
		c-1.24,1.041-2.511,1.77-3.81,2.19c-1.3,0.42-2.571,0.35-3.81-0.21c-1.28-0.6-2.049-1.82-2.31-3.66c-0.26-1.839,0.23-4,1.47-6.48
		c1.16-2.36,2.379-4.35,3.66-5.97c1.28-1.62,2.55-2.889,3.81-3.81c1.26-0.919,2.46-1.5,3.6-1.74c1.14-0.24,2.169-0.159,3.09,0.24
		c0.399,0.201,0.78,0.51,1.14,0.93s0.54,0.891,0.54,1.41c-0.6-0.48-1.311-0.75-2.13-0.81c-0.82-0.06-1.69,0.201-2.61,0.78
		c-0.92,0.581-1.88,1.5-2.88,2.76c-1,1.26-2,2.97-3,5.13c-0.88,1.84-1.33,3.43-1.35,4.77c-0.021,1.341,0.39,2.23,1.23,2.67
		c0.399,0.24,0.91,0.201,1.53-0.12c0.62-0.319,1.27-0.83,1.95-1.53c0.68-0.699,1.35-1.54,2.01-2.52c0.66-0.979,1.23-1.989,1.71-3.03
		l0.54-1.32c-0.84-0.36-1.42-0.919-1.74-1.68c-0.32-0.76-0.43-1.51-0.33-2.25c0.099-0.74,0.399-1.4,0.9-1.98
		c0.5-0.58,1.189-0.87,2.07-0.87c1.08,0,1.81,0.48,2.19,1.44c0.38,0.96,0.39,2.14,0.03,3.54c0.919-0.12,1.86-0.339,2.82-0.66
		C54.3,34.12,55.04,33.741,55.56,33.3z M44.7,19.5c0.16,0.201,0.44,0.351,0.84,0.45c0.399,0.1,1.279,0.15,2.64,0.15
		c-1.32,0.04-2.19,0.11-2.61,0.21c-0.42,0.1-0.73,0.23-0.93,0.39c-0.081,0.12-0.16,0.27-0.24,0.45
		c-0.081,0.18-0.141,0.471-0.18,0.87c-0.04,0.4-0.07,0.96-0.09,1.68c-0.021,0.72-0.03,1.66-0.03,2.82c0-1.16-0.011-2.1-0.03-2.82
		c-0.021-0.72-0.06-1.28-0.12-1.68c-0.06-0.399-0.12-0.69-0.18-0.87c-0.06-0.18-0.15-0.33-0.27-0.45
		c-0.201-0.16-0.501-0.29-0.9-0.39c-0.4-0.1-1.281-0.17-2.64-0.21c1.28,0,2.139-0.05,2.58-0.15c0.439-0.1,0.759-0.25,0.96-0.45
		c0.159-0.159,0.29-0.45,0.39-0.87c0.1-0.42,0.17-1.29,0.21-2.61c0.039,1.32,0.099,2.19,0.18,2.61
		C44.359,19.05,44.499,19.341,44.7,19.5z M43.56,56.28c0.08,0.08,0.229,0.16,0.45,0.24c0.219,0.08,0.729,0.14,1.53,0.18
		c-0.72,0-1.21,0.039-1.47,0.12c-0.261,0.08-0.45,0.18-0.57,0.3c-0.081,0.08-0.141,0.18-0.18,0.3c-0.04,0.12-0.07,0.32-0.09,0.6
		c-0.021,0.279-0.041,0.669-0.06,1.17c-0.021,0.5-0.03,1.17-0.03,2.01c0-0.84-0.01-1.511-0.03-2.01
		c-0.021-0.5-0.041-0.891-0.06-1.17c-0.021-0.28-0.06-0.48-0.12-0.6s-0.13-0.22-0.21-0.3c-0.12-0.12-0.31-0.22-0.57-0.3
		c-0.261-0.081-0.771-0.12-1.53-0.12c0.8-0.041,1.32-0.101,1.56-0.18c0.24-0.081,0.42-0.16,0.54-0.24c0.08-0.12,0.16-0.3,0.24-0.54
		c0.08-0.24,0.14-0.761,0.18-1.56c0,0.759,0.04,1.269,0.12,1.53C43.339,55.97,43.44,56.16,43.56,56.28z"/>
	<path d="M67.02,28.32h4.8c-0.88,1.96-1.821,3.96-2.82,6c-0.84,1.761-1.77,3.701-2.79,5.82c-1.02,2.121-2.01,4.2-2.97,6.24
		c1.52-0.96,2.94-2.06,4.26-3.3c1.32-1.239,2.419-2.76,3.3-4.56l1.38,1.44c-0.88,2.04-2.271,3.82-4.17,5.34
		c-1.9,1.521-3.97,2.88-6.21,4.08l-0.12,0.3c-1,2.12-2.1,4.05-3.3,5.79c-1.2,1.74-2.43,3.169-3.69,4.29
		c-1.26,1.12-2.5,1.86-3.72,2.22c-1.22,0.36-2.33,0.2-3.33-0.48c-0.799-0.561-1.31-1.25-1.53-2.07c-0.219-0.82-0.09-1.731,0.39-2.73
		c0.36-0.801,0.891-1.521,1.59-2.16c0.7-0.64,1.51-1.24,2.43-1.8c0.92-0.561,1.92-1.09,3-1.59c1.08-0.5,2.199-1.011,3.36-1.53
		c0.52-0.96,1.029-1.93,1.53-2.91c0.5-0.979,0.97-1.929,1.41-2.85c-1.281,1.68-2.55,3.07-3.81,4.17c-1.26,1.101-2.35,1.65-3.27,1.65
		c-0.84,0-1.52-0.2-2.04-0.6c-0.519-0.399-0.84-1.04-0.96-1.92c-0.12-0.879,0-1.98,0.36-3.3c0.36-1.32,1.02-2.919,1.98-4.8
		c0.919-1.88,1.759-3.489,2.52-4.83c0.759-1.34,1.419-2.45,1.98-3.33c0.639-1.04,1.179-1.899,1.62-2.58h4.86
		c-0.76,1.2-1.5,2.421-2.22,3.66c-0.64,1.041-1.3,2.19-1.98,3.45c-0.681,1.26-1.281,2.47-1.8,3.63c-2.121,4.48-2.721,6.72-1.8,6.72
		c0.24,0,0.66-0.33,1.26-0.99s1.28-1.509,2.04-2.55c0.759-1.04,1.56-2.22,2.4-3.54c0.84-1.32,1.65-2.62,2.43-3.9
		c0.78-1.279,1.49-2.499,2.13-3.66C66.159,29.98,66.659,29.04,67.02,28.32z M48.54,57.78c-0.2,0.76-0.1,1.26,0.3,1.5
		c0.4,0.2,0.851,0.16,1.35-0.12c0.5-0.28,1.02-0.72,1.56-1.32c0.54-0.6,1.1-1.34,1.68-2.22c0.58-0.88,1.17-1.84,1.77-2.88
		c-1.68,0.84-3.129,1.659-4.35,2.46C49.63,56,48.86,56.859,48.54,57.78z M61.02,23.1c-0.201-0.16-0.501-0.29-0.9-0.39
		c-0.4-0.099-1.281-0.169-2.64-0.21c1.28,0,2.139-0.05,2.58-0.15c0.439-0.1,0.759-0.25,0.96-0.45c0.159-0.159,0.29-0.45,0.39-0.87
		c0.1-0.42,0.17-1.29,0.21-2.61c0.039,1.32,0.099,2.19,0.18,2.61c0.08,0.42,0.219,0.711,0.42,0.87c0.16,0.201,0.44,0.351,0.84,0.45
		c0.399,0.1,1.279,0.15,2.64,0.15c-1.32,0.041-2.19,0.111-2.61,0.21c-0.42,0.101-0.73,0.23-0.93,0.39
		c-0.2,0.201-0.34,0.59-0.42,1.17c-0.081,0.58-0.12,1.73-0.12,3.45c-0.041-1.76-0.111-2.919-0.21-3.48
		C61.309,23.68,61.179,23.301,61.02,23.1z M63.959,59.34c0.08,0.08,0.229,0.16,0.45,0.24c0.22,0.08,0.729,0.14,1.53,0.18
		c-0.72,0-1.21,0.04-1.47,0.12c-0.26,0.08-0.45,0.18-0.57,0.3c-0.081,0.08-0.141,0.18-0.18,0.3c-0.04,0.12-0.07,0.32-0.09,0.6
		c-0.021,0.279-0.041,0.669-0.06,1.17c-0.021,0.5-0.03,1.17-0.03,2.01c0-0.84-0.01-1.51-0.03-2.01c-0.021-0.5-0.04-0.891-0.06-1.17
		c-0.021-0.28-0.06-0.48-0.12-0.6c-0.06-0.12-0.13-0.22-0.21-0.3c-0.12-0.12-0.311-0.221-0.57-0.3
		c-0.261-0.081-0.771-0.12-1.53-0.12c0.799-0.04,1.32-0.1,1.56-0.18c0.24-0.081,0.42-0.16,0.54-0.24c0.08-0.12,0.159-0.3,0.24-0.54
		c0.08-0.24,0.14-0.76,0.18-1.56c0,0.759,0.039,1.269,0.12,1.53C63.739,59.03,63.839,59.22,63.959,59.34z"/>
	<path d="M87.239,38.52l1.38,1.44c-1.08,1.881-2.34,3.55-3.78,5.01c-1.44,1.46-2.94,2.63-4.5,3.51c-1.56,0.88-3.101,1.41-4.62,1.59
		c-1.521,0.18-2.88-0.11-4.08-0.87c-0.64-0.399-1.149-0.96-1.53-1.68c-0.38-0.72-0.609-1.569-0.69-2.55c-0.08-0.98,0-2.04,0.24-3.18
		c0.24-1.14,0.66-2.33,1.26-3.57c1.16-2.36,2.409-4.3,3.75-5.82c1.339-1.52,2.649-2.679,3.93-3.48c1.28-0.8,2.48-1.28,3.6-1.44
		c1.12-0.159,2.04-0.06,2.76,0.3c0.6,0.321,1.069,0.791,1.41,1.41c0.339,0.621,0.53,1.331,0.57,2.13
		c0.039,0.801-0.07,1.671-0.33,2.61c-0.261,0.94-0.71,1.87-1.35,2.79c-0.88,1.28-1.851,2.31-2.91,3.09
		c-1.06,0.78-2.09,1.3-3.09,1.56c-1,0.261-1.89,0.28-2.67,0.06c-0.78-0.22-1.35-0.69-1.71-1.41c-0.36,1.32-0.49,2.49-0.39,3.51
		c0.1,1.02,0.549,1.71,1.35,2.07c0.639,0.32,1.479,0.37,2.52,0.15c1.04-0.219,2.1-0.66,3.18-1.32c1.08-0.66,2.13-1.5,3.15-2.52
		S86.558,39.76,87.239,38.52z M80.459,57.36c0.12,0.16,0.279,0.29,0.48,0.39c0.2,0.1,0.51,0.2,0.93,0.3
		c0.42,0.1,1.01,0.17,1.77,0.21c0.76,0.04,1.76,0.08,3,0.12c-1.2,0-2.181,0.03-2.94,0.09c-0.76,0.06-1.36,0.129-1.8,0.21
		c-0.441,0.08-0.771,0.18-0.99,0.3c-0.22,0.12-0.411,0.26-0.57,0.42c-0.12,0.16-0.24,0.36-0.36,0.6c-0.12,0.24-0.21,0.609-0.27,1.11
		c-0.06,0.5-0.12,1.17-0.18,2.01c-0.06,0.84-0.09,1.939-0.09,3.3c0-1.36-0.03-2.47-0.09-3.33c-0.06-0.86-0.13-1.54-0.21-2.04
		c-0.081-0.5-0.18-0.87-0.3-1.11c-0.12-0.24-0.24-0.42-0.36-0.54c-0.161-0.16-0.36-0.3-0.6-0.42c-0.24-0.12-0.581-0.22-1.02-0.3
		c-0.441-0.081-1.03-0.15-1.77-0.21c-0.741-0.06-1.71-0.09-2.91-0.09c1.2-0.04,2.169-0.081,2.91-0.12
		c0.74-0.04,1.329-0.11,1.77-0.21c0.439-0.1,0.77-0.2,0.99-0.3c0.22-0.1,0.41-0.23,0.57-0.39c0.12-0.16,0.24-0.351,0.36-0.57
		c0.12-0.22,0.219-0.55,0.3-0.99c0.08-0.44,0.15-1.03,0.21-1.77c0.06-0.74,0.109-1.71,0.15-2.91c0,1.2,0.03,2.169,0.09,2.91
		c0.06,0.74,0.129,1.33,0.21,1.77c0.08,0.44,0.18,0.77,0.3,0.99C80.159,57.009,80.298,57.2,80.459,57.36z M80.039,15.9
		c0.159,0.201,0.439,0.351,0.84,0.45c0.399,0.1,1.28,0.15,2.64,0.15c-1.32,0.041-2.19,0.111-2.61,0.21
		c-0.42,0.101-0.73,0.23-0.93,0.39c-0.081,0.12-0.161,0.27-0.24,0.45c-0.081,0.18-0.141,0.471-0.18,0.87
		c-0.04,0.4-0.07,0.96-0.09,1.68c-0.021,0.72-0.03,1.66-0.03,2.82c0-1.16-0.01-2.1-0.03-2.82c-0.021-0.72-0.06-1.28-0.12-1.68
		c-0.06-0.399-0.12-0.69-0.18-0.87c-0.06-0.18-0.15-0.33-0.27-0.45c-0.201-0.16-0.5-0.29-0.9-0.39c-0.4-0.099-1.281-0.169-2.64-0.21
		c1.28,0,2.139-0.05,2.58-0.15c0.439-0.1,0.759-0.25,0.96-0.45c0.159-0.159,0.29-0.45,0.39-0.87c0.099-0.42,0.169-1.29,0.21-2.61
		c0.039,1.32,0.099,2.19,0.18,2.61C79.699,15.45,79.838,15.741,80.039,15.9z M82.019,34.86c1.04-1.119,1.719-2.169,2.04-3.15
		c0.32-0.979,0.32-1.569,0-1.77c-0.48-0.32-1.08-0.32-1.8,0c-0.72,0.321-1.46,0.84-2.22,1.56c-0.761,0.72-1.5,1.581-2.22,2.58
		c-0.72,1-1.32,2.02-1.8,3.06c-0.201,0.561-0.141,0.91,0.18,1.05c0.32,0.141,0.78,0.101,1.38-0.12c0.6-0.219,1.29-0.6,2.07-1.14
		C80.429,36.39,81.218,35.7,82.019,34.86z"/>
	<path d="M106.558,28.32l-6.18,13.26c-0.681,1.4-1.101,2.451-1.26,3.15c-0.16,0.7,0.02,1.05,0.54,1.05c0.8,0,1.66-0.649,2.58-1.95
		c0.92-1.299,1.899-3.069,2.94-5.31l1.38,1.44c-1.4,3.081-2.871,5.47-4.41,7.17c-1.541,1.701-3.21,2.55-5.01,2.55
		c-0.48,0-0.9-0.06-1.26-0.18c-1.881-0.56-2.361-2.36-1.44-5.4c-1.241,1.641-2.46,2.98-3.66,4.02c-1.2,1.041-2.26,1.56-3.18,1.56
		c-0.84,0-1.52-0.2-2.04-0.6c-0.519-0.399-0.84-1.04-0.96-1.92c-0.12-0.879,0-1.98,0.36-3.3c0.36-1.32,1.02-2.919,1.98-4.8
		c0.919-1.88,1.759-3.489,2.52-4.83c0.759-1.34,1.419-2.45,1.98-3.33c0.639-1.04,1.179-1.899,1.62-2.58h4.86
		c-0.76,1.2-1.5,2.421-2.22,3.66c-0.64,1.041-1.3,2.19-1.98,3.45c-0.681,1.26-1.3,2.47-1.86,3.63c-2.081,4.48-2.661,6.72-1.74,6.72
		c0.32,0,0.93-0.54,1.83-1.62s1.899-2.4,3-3.96c1.1-1.56,2.21-3.22,3.33-4.98c1.119-1.76,2.06-3.32,2.82-4.68l1.2-2.22H106.558z
		 M96.898,58.56c0.12,0.159,0.279,0.29,0.48,0.39c0.2,0.099,0.51,0.2,0.93,0.3c0.42,0.1,1.01,0.17,1.77,0.21
		c0.76,0.04,1.76,0.08,3,0.12c-1.2,0-2.181,0.03-2.94,0.09c-0.76,0.06-1.36,0.129-1.8,0.21c-0.441,0.08-0.771,0.18-0.99,0.3
		c-0.22,0.12-0.411,0.259-0.57,0.42c-0.12,0.12-0.24,0.3-0.36,0.54c-0.12,0.24-0.21,0.579-0.27,1.02
		c-0.06,0.439-0.12,1.029-0.18,1.77c-0.06,0.74-0.09,1.71-0.09,2.91c-0.041-1.2-0.09-2.181-0.15-2.94c-0.06-0.76-0.13-1.36-0.21-1.8
		c-0.081-0.441-0.17-0.771-0.27-0.99c-0.1-0.22-0.21-0.39-0.33-0.51c-0.161-0.161-0.36-0.3-0.6-0.42
		c-0.24-0.12-0.581-0.221-1.02-0.3c-0.441-0.081-1.03-0.15-1.77-0.21c-0.741-0.06-1.71-0.09-2.91-0.09
		c1.2-0.041,2.169-0.081,2.91-0.12c0.74-0.04,1.329-0.11,1.77-0.21c0.439-0.1,0.77-0.201,0.99-0.3c0.22-0.101,0.41-0.231,0.57-0.39
		c0.12-0.16,0.24-0.351,0.36-0.57c0.12-0.221,0.219-0.551,0.3-0.99c0.08-0.44,0.15-1.03,0.21-1.77c0.06-0.741,0.109-1.71,0.15-2.91
		c0,1.2,0.03,2.169,0.09,2.91c0.06,0.74,0.129,1.33,0.21,1.77c0.08,0.439,0.18,0.77,0.3,0.99
		C96.598,58.209,96.737,58.4,96.898,58.56z M97.678,18.9c0.16,0.201,0.44,0.351,0.84,0.45c0.399,0.1,1.28,0.15,2.64,0.15
		c-1.32,0.041-2.19,0.111-2.61,0.21c-0.42,0.101-0.73,0.23-0.93,0.39c-0.081,0.12-0.16,0.27-0.24,0.45
		c-0.081,0.18-0.141,0.471-0.18,0.87c-0.04,0.4-0.07,0.96-0.09,1.68c-0.021,0.72-0.03,1.66-0.03,2.82c0-1.16-0.01-2.1-0.03-2.82
		c-0.021-0.72-0.06-1.28-0.12-1.68c-0.06-0.399-0.12-0.69-0.18-0.87c-0.06-0.18-0.15-0.33-0.27-0.45
		c-0.201-0.16-0.501-0.29-0.9-0.39c-0.4-0.099-1.28-0.169-2.64-0.21c1.279,0,2.139-0.05,2.58-0.15c0.44-0.1,0.76-0.25,0.96-0.45
		c0.159-0.159,0.29-0.45,0.39-0.87c0.1-0.42,0.17-1.29,0.21-2.61c0.04,1.32,0.1,2.19,0.18,2.61
		C97.337,18.45,97.477,18.741,97.678,18.9z"/>
	<path d="M120.478,26.04c0.84,0.081,1.38,0.591,1.62,1.53c0.24,0.94,0.08,2.11-0.48,3.51c-0.48,1.12-1.03,2.121-1.65,3
		c-0.621,0.88-1.29,1.701-2.01,2.46c-0.72,0.76-1.47,1.45-2.25,2.07c-0.78,0.621-1.57,1.21-2.37,1.77
		c-0.081,1.881,0.009,3.371,0.27,4.47c0.259,1.101,0.75,1.65,1.47,1.65c0.399,0,0.879-0.21,1.44-0.63c0.56-0.42,1.14-0.99,1.74-1.71
		c0.6-0.72,1.209-1.56,1.83-2.52c0.62-0.96,1.189-2,1.71-3.12l1.38,1.44c-1.44,3.081-2.88,5.47-4.32,7.17
		c-1.44,1.701-3.201,2.55-5.28,2.55c-0.8,0-1.521-0.161-2.16-0.48c-0.801-0.44-1.41-1.13-1.83-2.07
		c-0.42-0.939-0.69-2.049-0.81-3.33c-0.561,0.521-1.09,1.061-1.59,1.62c-0.5,0.561-0.93,1.18-1.29,1.86
		c0.519-0.159,0.96-0.169,1.32-0.03c0.36,0.141,0.639,0.36,0.84,0.66c0.2,0.3,0.33,0.67,0.39,1.11c0.06,0.44,0.05,0.86-0.03,1.26
		c-0.161,0.8-0.521,1.51-1.08,2.13c-0.561,0.62-1.24,0.909-2.04,0.87c-0.399,0-0.79-0.12-1.17-0.36c-0.38-0.24-0.69-0.58-0.93-1.02
		c-0.24-0.44-0.37-0.97-0.39-1.59c-0.02-0.621,0.111-1.33,0.39-2.13c0.521-1.359,1.271-2.589,2.25-3.69
		c0.979-1.1,2.07-2.15,3.27-3.15c0-1.04,0.04-2.149,0.12-3.33c0.08-1.179,0.2-2.409,0.36-3.69l-3,6.3l-1.38-1.44l5.22-10.86h4.56
		c-0.24,1.68-0.46,3.321-0.66,4.92c-0.2,1.6-0.36,3.1-0.48,4.5c1.2-0.92,2.28-1.85,3.24-2.79c0.96-0.939,1.719-1.97,2.28-3.09
		c-0.84,0.081-1.431-0.219-1.77-0.9c-0.34-0.68-0.39-1.419-0.15-2.22c0.24-0.76,0.669-1.419,1.29-1.98
		C118.967,26.2,119.677,25.96,120.478,26.04z M114.838,18.96c0.12,0.201,0.279,0.36,0.48,0.48c0.2,0.12,0.51,0.22,0.93,0.3
		c0.42,0.081,1.01,0.141,1.77,0.18c0.76,0.041,1.76,0.06,3,0.06c-1.2,0.041-2.181,0.09-2.94,0.15c-0.76,0.06-1.36,0.13-1.8,0.21
		c-0.441,0.081-0.771,0.18-0.99,0.3c-0.22,0.12-0.411,0.24-0.57,0.36c-0.12,0.16-0.24,0.36-0.36,0.6c-0.12,0.24-0.21,0.58-0.27,1.02
		c-0.06,0.44-0.12,1.03-0.18,1.77c-0.06,0.741-0.09,1.69-0.09,2.85c-0.041-1.2-0.09-2.169-0.15-2.91c-0.06-0.74-0.13-1.33-0.21-1.77
		c-0.081-0.44-0.17-0.77-0.27-0.99c-0.1-0.219-0.21-0.41-0.33-0.57c-0.161-0.12-0.36-0.24-0.6-0.36c-0.24-0.12-0.581-0.22-1.02-0.3
		c-0.441-0.08-1.03-0.15-1.77-0.21c-0.741-0.06-1.71-0.109-2.91-0.15c1.2,0,2.169-0.02,2.91-0.06c0.74-0.039,1.329-0.099,1.77-0.18
		c0.439-0.08,0.77-0.18,0.99-0.3c0.22-0.12,0.41-0.279,0.57-0.48c0.12-0.12,0.24-0.29,0.36-0.51c0.12-0.22,0.219-0.55,0.3-0.99
		c0.08-0.439,0.15-1.04,0.21-1.8c0.06-0.76,0.109-1.74,0.15-2.94c0,1.2,0.03,2.18,0.09,2.94c0.06,0.76,0.129,1.36,0.21,1.8
		c0.08,0.44,0.18,0.771,0.3,0.99C114.538,18.67,114.677,18.84,114.838,18.96z M112.018,54.9c0.08,0.08,0.18,0.16,0.3,0.24
		c0.12,0.08,0.3,0.14,0.54,0.18c0.24,0.04,0.57,0.08,0.99,0.12c0.42,0.04,0.969,0.06,1.65,0.06c-1.32,0.04-2.2,0.11-2.64,0.21
		c-0.441,0.1-0.741,0.229-0.9,0.39c-0.16,0.159-0.28,0.45-0.36,0.87c-0.081,0.42-0.141,1.29-0.18,2.61
		c-0.041-1.32-0.111-2.19-0.21-2.61c-0.1-0.42-0.23-0.711-0.39-0.87c-0.081-0.081-0.19-0.161-0.33-0.24
		c-0.141-0.081-0.33-0.141-0.57-0.18c-0.24-0.041-0.57-0.081-0.99-0.12c-0.42-0.041-0.97-0.06-1.65-0.06
		c0.639,0,1.17-0.021,1.59-0.06c0.42-0.04,0.759-0.081,1.02-0.12c0.26-0.04,0.459-0.1,0.6-0.18c0.14-0.081,0.25-0.161,0.33-0.24
		c0.159-0.201,0.29-0.51,0.39-0.93c0.1-0.42,0.17-1.29,0.21-2.61c0.039,1.32,0.099,2.2,0.18,2.64
		C111.677,54.439,111.817,54.74,112.018,54.9z"/>
	<path d="M206.336,10.02c-1.92,0.6-3.73,1.521-5.43,2.76c-1.7,1.241-3.291,2.631-4.77,4.17c-1.48,1.54-2.86,3.16-4.141,4.86
		c-1.28,1.701-2.46,3.351-3.54,4.95c-0.681,0.96-1.49,2.16-2.43,3.6c-0.94,1.44-1.881,2.991-2.82,4.65
		c-0.94,1.661-1.83,3.39-2.67,5.19c-0.84,1.8-1.48,3.53-1.92,5.19c-0.44,1.66-0.61,3.201-0.51,4.62c0.1,1.419,0.59,2.61,1.47,3.57
		c0,0.32-0.07,0.649-0.21,0.99c-0.141,0.339-0.25,0.669-0.33,0.99c-1.24-0.521-2.26-1.29-3.06-2.31
		c-0.801-1.02-1.461-2.181-1.98-3.48c-0.521-1.299-0.899-2.69-1.14-4.17c-0.24-1.479-0.4-2.95-0.48-4.41
		c-0.08-1.459-0.09-2.87-0.029-4.23c0.06-1.359,0.129-2.54,0.21-3.54c0.319-3.32,0.869-6.669,1.649-10.05
		c0.78-3.38,1.93-6.59,3.45-9.63c-0.72,1.041-1.41,2.18-2.07,3.42c-0.66,1.24-1.26,2.48-1.8,3.72c-0.54,1.24-1.02,2.411-1.439,3.51
		c-0.421,1.101-0.791,2.01-1.11,2.73c-0.88,1.96-1.71,3.97-2.49,6.03c-0.78,2.061-1.62,4.09-2.52,6.09c-0.9,2-1.88,3.95-2.94,5.85
		c-1.06,1.9-2.31,3.67-3.75,5.31c-1.56,1.76-3.31,3.08-5.25,3.96c-1.94,0.879-3.86,1.359-5.76,1.44c-1.9,0.08-3.681-0.22-5.34-0.9
		c-1.66-0.681-2.96-1.701-3.9-3.06c-0.94-1.36-1.42-3.039-1.44-5.04c-0.021-2,0.63-4.279,1.95-6.84c0.519-1,1.2-1.929,2.04-2.79
		c0.84-0.859,1.779-1.58,2.82-2.16c1.04-0.579,2.13-0.979,3.27-1.2c1.14-0.219,2.29-0.189,3.45,0.09
		c0.919,0.201,1.729,0.651,2.43,1.35c0.7,0.7,1.13,1.53,1.29,2.49c0.16,1.16,0,1.74-0.48,1.74s-1.2-0.24-2.16-0.72
		c-0.8-0.399-1.73-0.579-2.79-0.54c-1.06,0.04-2.03,0.26-2.91,0.66c-0.921,0.4-1.75,0.93-2.49,1.59c-0.741,0.66-1.39,1.39-1.95,2.19
		c-0.561,0.8-1.011,1.66-1.35,2.58c-0.34,0.92-0.531,1.82-0.57,2.7c-0.081,1.121,0.12,2.16,0.6,3.12s1.26,1.64,2.34,2.04
		c1.479,0.519,2.91,0.649,4.29,0.39c1.38-0.261,2.709-0.791,3.99-1.59c1.28-0.8,2.49-1.791,3.63-2.97c1.14-1.18,2.2-2.43,3.18-3.75
		c0.979-1.32,1.869-2.62,2.67-3.9c0.8-1.279,1.5-2.419,2.1-3.42c1.239-2.16,2.409-4.32,3.51-6.48c1.1-2.16,2.19-4.329,3.27-6.51
		c1.08-2.18,2.19-4.34,3.331-6.48c1.14-2.14,2.39-4.27,3.75-6.39l-6.36,3.42c-0.521-0.8-1.11-1.459-1.77-1.98
		c-0.66-0.52-1.431-0.96-2.31-1.32c-1.08-0.48-2.181-0.71-3.3-0.69c-1.121,0.021-2.19,0.23-3.21,0.63
		c-1.02,0.4-1.941,0.96-2.76,1.68c-0.82,0.72-1.47,1.54-1.95,2.46c-0.36,0.681-0.651,1.48-0.87,2.4c-0.22,0.92-0.3,1.83-0.24,2.73
		s0.29,1.72,0.69,2.46c0.399,0.741,1.02,1.29,1.86,1.65c0.84,0.321,1.659,0.36,2.46,0.12c0.799-0.24,1.459-0.68,1.98-1.32
		c0.319-0.44,0.549-0.95,0.69-1.53c0.14-0.579,0.169-1.149,0.09-1.71c0.96-0.32,1.76-0.26,2.4,0.18c0.64,0.44,1,1.18,1.08,2.22
		c0.04,0.72-0.07,1.391-0.33,2.01c-0.26,0.621-0.63,1.18-1.11,1.68c-0.48,0.501-1.03,0.921-1.65,1.26
		c-0.621,0.34-1.23,0.59-1.83,0.75c-0.801,0.201-1.641,0.22-2.52,0.06c-0.88-0.16-1.701-0.48-2.46-0.96
		c-0.88-0.52-1.57-1.209-2.07-2.07c-0.501-0.859-0.861-1.779-1.08-2.76c-0.22-0.98-0.311-1.989-0.27-3.03
		c0.04-1.04,0.159-2.019,0.36-2.94c0.399-1.68,1.1-3.169,2.1-4.47c1-1.299,2.199-2.35,3.6-3.15c1.399-0.799,2.919-1.35,4.56-1.65
		c1.64-0.3,3.279-0.27,4.92,0.09c1.239,0.24,2.45,0.67,3.63,1.29c1.179,0.621,2.229,1.331,3.149,2.13l6.9-3.6l1.319,1.38
		c-1.24,2.841-2.2,5.7-2.88,8.58c-0.681,2.88-1.21,5.781-1.59,8.7c-0.381,2.92-0.66,5.88-0.84,8.88s-0.351,6.04-0.51,9.12
		c1.039-3.76,2.34-7.419,3.899-10.98c1.561-3.56,3.279-6.96,5.16-10.2c0.48-0.84,1.08-1.86,1.8-3.06c0.721-1.2,1.54-2.439,2.46-3.72
		c0.92-1.28,1.92-2.54,3-3.78c1.08-1.239,2.2-2.319,3.36-3.24c1.16-0.92,2.359-1.6,3.6-2.04c1.24-0.44,2.48-0.52,3.721-0.24
		c0.8,0.201,1.389,0.561,1.77,1.08C206.086,9.041,206.296,9.54,206.336,10.02z M147.717,26.52c0.159,0.201,0.439,0.351,0.84,0.45
		c0.399,0.1,1.28,0.15,2.64,0.15c-1.32,0.04-2.19,0.11-2.61,0.21c-0.42,0.1-0.73,0.23-0.93,0.39c-0.081,0.12-0.16,0.27-0.24,0.45
		c-0.081,0.18-0.141,0.471-0.18,0.87c-0.041,0.4-0.07,0.96-0.09,1.68c-0.021,0.72-0.03,1.66-0.03,2.82c0-1.16-0.01-2.1-0.03-2.82
		c-0.021-0.72-0.06-1.28-0.12-1.68c-0.06-0.399-0.12-0.69-0.18-0.87c-0.06-0.18-0.15-0.33-0.27-0.45c-0.201-0.16-0.5-0.29-0.9-0.39
		c-0.4-0.1-1.281-0.17-2.64-0.21c1.28,0,2.14-0.05,2.58-0.15c0.44-0.1,0.759-0.25,0.96-0.45c0.16-0.159,0.29-0.45,0.39-0.87
		c0.1-0.42,0.17-1.29,0.21-2.61c0.04,1.32,0.1,2.19,0.18,2.61C147.376,26.07,147.516,26.361,147.717,26.52z M170.397,59.04
		c0.12,0.159,0.279,0.29,0.48,0.39c0.2,0.099,0.51,0.2,0.93,0.3c0.42,0.1,1.01,0.17,1.77,0.21c0.76,0.04,1.76,0.08,3,0.12
		c-1.2,0-2.181,0.03-2.939,0.09c-0.761,0.06-1.36,0.129-1.801,0.21c-0.44,0.08-0.771,0.18-0.99,0.3c-0.22,0.12-0.411,0.26-0.57,0.42
		c-0.12,0.12-0.24,0.3-0.36,0.54c-0.12,0.24-0.21,0.579-0.27,1.02c-0.06,0.439-0.12,1.029-0.18,1.77c-0.06,0.74-0.09,1.71-0.09,2.91
		c-0.041-1.2-0.09-2.181-0.15-2.94c-0.06-0.76-0.13-1.36-0.21-1.8c-0.081-0.441-0.17-0.771-0.27-0.99c-0.1-0.22-0.21-0.39-0.33-0.51
		c-0.16-0.16-0.36-0.3-0.6-0.42c-0.24-0.12-0.581-0.221-1.02-0.3c-0.441-0.081-1.03-0.15-1.77-0.21c-0.741-0.06-1.71-0.09-2.91-0.09
		c1.2-0.041,2.169-0.081,2.91-0.12c0.74-0.04,1.329-0.11,1.77-0.21c0.439-0.1,0.77-0.201,0.99-0.3c0.22-0.101,0.41-0.231,0.57-0.39
		c0.12-0.16,0.24-0.351,0.36-0.57c0.12-0.221,0.219-0.55,0.3-0.99c0.08-0.44,0.15-1.03,0.21-1.77c0.06-0.741,0.11-1.71,0.15-2.91
		c0,1.2,0.03,2.169,0.09,2.91c0.06,0.74,0.129,1.33,0.21,1.77c0.08,0.44,0.18,0.77,0.3,0.99
		C170.097,58.689,170.236,58.88,170.397,59.04z M189.417,6.72c0.08,0.12,0.24,0.22,0.48,0.3c0.24,0.081,0.739,0.12,1.5,0.12
		c-0.721,0.04-1.211,0.1-1.471,0.18c-0.26,0.081-0.449,0.161-0.569,0.24c-0.081,0.12-0.16,0.33-0.24,0.63
		c-0.081,0.3-0.12,0.91-0.12,1.83c-0.04-0.92-0.09-1.53-0.149-1.83c-0.061-0.3-0.15-0.51-0.271-0.63c-0.12-0.08-0.3-0.16-0.54-0.24
		c-0.24-0.08-0.76-0.14-1.56-0.18c0.759,0,1.27-0.04,1.529-0.12c0.26-0.08,0.45-0.18,0.57-0.3c0.08-0.08,0.159-0.25,0.24-0.51
		c0.079-0.26,0.14-0.75,0.18-1.47c0,0.72,0.039,1.21,0.12,1.47C189.197,6.471,189.296,6.64,189.417,6.72z"/>
	<path d="M208.017,33.3l0.78,1.62c-1.08,0.681-2.171,1.2-3.271,1.56c-1.101,0.36-2.17,0.581-3.21,0.66
		c-0.081,0.32-0.19,0.621-0.33,0.9c-0.141,0.28-0.27,0.58-0.39,0.9c-0.721,1.521-1.611,3.021-2.67,4.5
		c-1.061,1.48-2.211,2.74-3.45,3.78c-1.24,1.041-2.511,1.77-3.811,2.19s-2.57,0.35-3.81-0.21c-1.279-0.6-2.05-1.82-2.31-3.66
		c-0.26-1.839,0.23-4,1.47-6.48c1.159-2.36,2.379-4.35,3.66-5.97c1.279-1.62,2.55-2.889,3.81-3.81c1.26-0.919,2.46-1.5,3.6-1.74
		c1.141-0.24,2.17-0.159,3.091,0.24c0.399,0.201,0.779,0.51,1.14,0.93s0.54,0.891,0.54,1.41c-0.6-0.48-1.311-0.75-2.13-0.81
		c-0.82-0.06-1.69,0.201-2.61,0.78c-0.921,0.581-1.881,1.5-2.88,2.76c-1,1.26-2.001,2.97-3,5.13c-0.88,1.84-1.33,3.43-1.35,4.77
		c-0.021,1.341,0.39,2.23,1.229,2.67c0.399,0.24,0.909,0.201,1.53-0.12c0.619-0.319,1.27-0.83,1.95-1.53
		c0.68-0.699,1.35-1.54,2.01-2.52c0.66-0.979,1.229-1.989,1.71-3.03l0.54-1.32c-0.84-0.36-1.42-0.919-1.74-1.68
		c-0.32-0.76-0.43-1.51-0.33-2.25c0.1-0.74,0.399-1.4,0.9-1.98c0.5-0.58,1.189-0.87,2.07-0.87c1.079,0,1.809,0.48,2.189,1.44
		c0.38,0.96,0.39,2.14,0.03,3.54c0.92-0.12,1.859-0.339,2.82-0.66C206.757,34.12,207.497,33.741,208.017,33.3z M197.157,19.5
		c0.159,0.201,0.439,0.351,0.84,0.45c0.399,0.1,1.28,0.15,2.641,0.15c-1.32,0.04-2.19,0.11-2.61,0.21c-0.42,0.1-0.73,0.23-0.93,0.39
		c-0.081,0.12-0.16,0.27-0.24,0.45c-0.081,0.18-0.141,0.471-0.18,0.87c-0.041,0.4-0.07,0.96-0.091,1.68
		c-0.021,0.72-0.029,1.66-0.029,2.82c0-1.16-0.011-2.1-0.03-2.82c-0.021-0.72-0.06-1.28-0.12-1.68c-0.06-0.399-0.12-0.69-0.18-0.87
		c-0.061-0.18-0.15-0.33-0.271-0.45c-0.2-0.16-0.5-0.29-0.899-0.39c-0.4-0.1-1.281-0.17-2.641-0.21c1.28,0,2.14-0.05,2.58-0.15
		c0.44-0.1,0.76-0.25,0.96-0.45c0.16-0.159,0.29-0.45,0.391-0.87c0.099-0.42,0.169-1.29,0.21-2.61c0.039,1.32,0.1,2.19,0.18,2.61
		S196.957,19.341,197.157,19.5z M196.017,56.28c0.079,0.08,0.229,0.16,0.45,0.24c0.219,0.08,0.729,0.14,1.529,0.18
		c-0.72,0-1.21,0.039-1.47,0.12c-0.261,0.08-0.45,0.18-0.57,0.3c-0.08,0.08-0.141,0.18-0.18,0.3c-0.04,0.12-0.07,0.32-0.09,0.6
		c-0.021,0.279-0.04,0.669-0.061,1.17c-0.021,0.5-0.029,1.17-0.029,2.01c0-0.84-0.011-1.511-0.03-2.01
		c-0.021-0.5-0.04-0.891-0.06-1.17c-0.021-0.28-0.061-0.48-0.12-0.6c-0.061-0.12-0.131-0.22-0.21-0.3
		c-0.12-0.12-0.311-0.22-0.57-0.3c-0.261-0.081-0.771-0.12-1.53-0.12c0.8-0.041,1.32-0.101,1.561-0.18
		c0.239-0.081,0.42-0.16,0.54-0.24c0.079-0.12,0.159-0.3,0.239-0.54c0.08-0.24,0.14-0.761,0.181-1.56c0,0.759,0.039,1.269,0.12,1.53
		C195.796,55.97,195.897,56.16,196.017,56.28z"/>
	<path d="M221.277,38.52l1.38,1.44c-1.2,2.04-2.61,3.851-4.23,5.43c-1.62,1.581-3.27,2.77-4.95,3.57c-1.4,0.68-2.78,1.06-4.14,1.14
		c-1.36,0.08-2.58-0.22-3.66-0.9c-0.641-0.399-1.149-0.96-1.53-1.68c-0.379-0.72-0.609-1.569-0.689-2.55
		c-0.08-0.98,0-2.04,0.24-3.18c0.239-1.14,0.659-2.33,1.26-3.57c1.159-2.36,2.409-4.3,3.75-5.82c1.34-1.52,2.649-2.679,3.93-3.48
		c1.28-0.8,2.479-1.28,3.601-1.44c1.119-0.159,2.04-0.06,2.76,0.3c0.6,0.321,1.069,0.791,1.41,1.41
		c0.339,0.621,0.529,1.331,0.569,2.13c0.04,0.801-0.07,1.671-0.33,2.61c-0.26,0.94-0.71,1.87-1.35,2.79
		c-0.88,1.28-1.851,2.31-2.91,3.09c-1.061,0.78-2.091,1.3-3.09,1.56c-1,0.261-1.89,0.28-2.67,0.06c-0.78-0.22-1.35-0.69-1.71-1.41
		c-0.36,1.32-0.49,2.49-0.39,3.51c0.099,1.02,0.549,1.71,1.35,2.07c0.64,0.32,1.479,0.37,2.52,0.15
		c1.04-0.219,2.101-0.66,3.181-1.32c1.08-0.66,2.13-1.5,3.149-2.52C219.747,40.89,220.596,39.76,221.277,38.52z M214.497,57.36
		c0.12,0.16,0.279,0.29,0.479,0.39c0.2,0.1,0.511,0.2,0.931,0.3c0.42,0.1,1.01,0.17,1.77,0.21c0.76,0.04,1.76,0.08,3,0.12
		c-1.2,0-2.181,0.03-2.939,0.09c-0.761,0.06-1.36,0.129-1.801,0.21c-0.44,0.08-0.771,0.18-0.989,0.3
		c-0.221,0.12-0.411,0.26-0.57,0.42c-0.12,0.12-0.24,0.3-0.36,0.54c-0.12,0.24-0.21,0.58-0.27,1.02
		c-0.061,0.44-0.12,1.029-0.18,1.77c-0.061,0.74-0.091,1.71-0.091,2.91c-0.04-1.2-0.09-2.181-0.149-2.94
		c-0.061-0.761-0.131-1.36-0.21-1.8c-0.081-0.44-0.171-0.771-0.271-0.99c-0.1-0.221-0.21-0.39-0.33-0.51
		c-0.16-0.16-0.359-0.3-0.6-0.42s-0.58-0.22-1.021-0.3c-0.44-0.081-1.03-0.15-1.77-0.21c-0.74-0.06-1.71-0.09-2.91-0.09
		c1.2-0.04,2.17-0.081,2.91-0.12c0.739-0.04,1.329-0.11,1.77-0.21c0.44-0.1,0.771-0.2,0.99-0.3c0.22-0.1,0.41-0.23,0.57-0.39
		c0.12-0.16,0.24-0.351,0.36-0.57c0.119-0.22,0.219-0.55,0.3-0.99c0.079-0.44,0.149-1.03,0.21-1.77c0.06-0.74,0.109-1.71,0.149-2.91
		c0,1.2,0.03,2.169,0.091,2.91c0.06,0.74,0.129,1.33,0.21,1.77c0.079,0.44,0.18,0.77,0.3,0.99
		C214.197,57.009,214.336,57.2,214.497,57.36z M217.676,21.84c-0.2,0.84-0.67,1.551-1.41,2.13c-0.74,0.58-1.529,0.87-2.37,0.87
		c-0.8,0-1.409-0.29-1.829-0.87c-0.421-0.58-0.531-1.29-0.33-2.13c0.239-0.919,0.799-1.7,1.68-2.34c-0.081-0.84-0.16-1.41-0.24-1.71
		s-0.18-0.53-0.3-0.69c-0.2-0.16-0.501-0.29-0.9-0.39c-0.4-0.099-1.28-0.169-2.64-0.21c1.279,0,2.14-0.05,2.58-0.15
		c0.439-0.1,0.76-0.25,0.96-0.45c0.159-0.159,0.29-0.45,0.39-0.87c0.1-0.42,0.17-1.29,0.21-2.61c0.04,1.32,0.1,2.19,0.181,2.61
		c0.079,0.42,0.219,0.711,0.42,0.87c0.159,0.201,0.439,0.351,0.84,0.45c0.399,0.1,1.279,0.15,2.64,0.15
		c-1.319,0.041-2.189,0.111-2.609,0.21c-0.42,0.101-0.73,0.23-0.931,0.39c-0.12,0.16-0.22,0.39-0.3,0.69s-0.141,0.85-0.18,1.65
		c0.68-0.399,1.34-0.6,1.979-0.6c0.8,0,1.41,0.3,1.83,0.9C217.766,20.34,217.876,21.041,217.676,21.84z M216.056,34.86
		c1.04-1.119,1.72-2.169,2.04-3.15c0.32-0.979,0.32-1.569,0-1.77c-0.479-0.32-1.08-0.32-1.8,0c-0.72,0.321-1.461,0.84-2.22,1.56
		c-0.761,0.72-1.5,1.581-2.221,2.58c-0.72,1-1.319,2.02-1.8,3.06c-0.2,0.561-0.141,0.91,0.181,1.05
		c0.319,0.141,0.779,0.101,1.38-0.12c0.6-0.219,1.29-0.6,2.069-1.14C214.466,36.39,215.255,35.7,216.056,34.86z M224.216,21.84
		c-0.2,0.84-0.681,1.551-1.439,2.13c-0.761,0.58-1.541,0.87-2.341,0.87c-0.84,0-1.47-0.29-1.89-0.87c-0.42-0.58-0.51-1.29-0.27-2.13
		c0.199-0.799,0.669-1.5,1.409-2.1c0.74-0.6,1.53-0.9,2.37-0.9c0.8,0,1.41,0.3,1.83,0.9C224.306,20.34,224.417,21.041,224.216,21.84
		z"/>
	<path d="M225.116,28.92c1.8-3.6,3.579-6.81,5.34-9.63c1.76-2.82,3.42-5.14,4.98-6.96c1.56-1.82,3-3.1,4.32-3.84
		c1.319-0.74,2.438-0.83,3.359-0.27c0.88,0.561,1.21,1.67,0.99,3.33c-0.221,1.661-1.03,3.791-2.43,6.39
		c-1.401,2.601-3.411,5.64-6.03,9.12c-2.62,3.48-5.891,7.281-9.811,11.4c-0.399,1.281-0.659,2.361-0.779,3.24
		c-0.12,0.88-0.16,1.61-0.12,2.19c0.039,0.58,0.14,1.02,0.3,1.32c0.159,0.3,0.319,0.49,0.48,0.57c0.279,0.161,0.699,0.081,1.26-0.24
		c0.56-0.32,1.17-0.81,1.83-1.47c0.66-0.66,1.34-1.47,2.04-2.43c0.699-0.96,1.31-2,1.83-3.12l1.38,1.44
		c-1.841,3.801-3.73,6.42-5.67,7.86c-1.941,1.44-3.671,1.92-5.19,1.44c-0.72-0.199-1.37-0.69-1.95-1.47
		c-0.579-0.78-0.879-1.97-0.899-3.57c-0.02-1.6,0.32-3.64,1.02-6.12C222.065,35.62,223.316,32.561,225.116,28.92z M227.756,57.06
		c0.079,0.08,0.18,0.159,0.3,0.24c0.12,0.08,0.3,0.14,0.54,0.18c0.239,0.04,0.569,0.08,0.989,0.12c0.421,0.039,0.97,0.06,1.65,0.06
		c-1.32,0.039-2.2,0.109-2.64,0.21c-0.441,0.099-0.741,0.229-0.9,0.39c-0.08,0.12-0.16,0.27-0.24,0.45s-0.141,0.47-0.18,0.87
		c-0.04,0.399-0.07,0.96-0.09,1.68c-0.021,0.72-0.03,1.66-0.03,2.82c0-1.161-0.01-2.1-0.03-2.82c-0.021-0.72-0.06-1.28-0.119-1.68
		c-0.061-0.4-0.12-0.69-0.181-0.87c-0.06-0.18-0.149-0.33-0.27-0.45c-0.081-0.081-0.19-0.16-0.33-0.24
		c-0.141-0.081-0.33-0.141-0.57-0.18c-0.24-0.04-0.57-0.081-0.99-0.12c-0.42-0.041-0.97-0.06-1.649-0.06
		c0.639,0,1.17-0.021,1.59-0.06c0.42-0.041,0.76-0.081,1.02-0.12c0.26-0.041,0.46-0.1,0.601-0.18c0.14-0.081,0.249-0.16,0.33-0.24
		c0.159-0.201,0.289-0.51,0.39-0.93c0.1-0.42,0.17-1.29,0.21-2.61c0.039,1.32,0.1,2.199,0.18,2.64
		C227.416,56.6,227.555,56.9,227.756,57.06z M227.576,14.88c0.08,0.12,0.24,0.22,0.48,0.3c0.239,0.081,0.739,0.12,1.5,0.12
		c-0.721,0.041-1.211,0.101-1.471,0.18c-0.26,0.081-0.449,0.16-0.569,0.24c-0.081,0.12-0.16,0.31-0.24,0.57
		c-0.081,0.261-0.12,0.771-0.12,1.53c-0.04-0.799-0.101-1.32-0.18-1.56c-0.081-0.24-0.16-0.42-0.24-0.54
		c-0.12-0.08-0.3-0.16-0.54-0.24c-0.24-0.08-0.76-0.14-1.56-0.18c0.759,0,1.269-0.039,1.529-0.12c0.26-0.08,0.45-0.18,0.57-0.3
		c0.08-0.08,0.159-0.249,0.24-0.51c0.079-0.26,0.14-0.75,0.18-1.47c0,0.72,0.039,1.21,0.12,1.47
		C227.356,14.631,227.456,14.8,227.576,14.88z M241.375,12.9c-0.16-0.12-0.61,0.201-1.35,0.96c-0.74,0.76-1.671,1.9-2.79,3.42
		c-1.12,1.521-2.38,3.411-3.78,5.67c-1.4,2.26-2.819,4.83-4.26,7.71l-1.32,2.7c1.88-2.28,3.69-4.59,5.431-6.93
		c1.739-2.34,3.26-4.479,4.56-6.42c1.3-1.939,2.28-3.56,2.94-4.86C241.466,13.851,241.655,13.101,241.375,12.9z"/>
</g>
</svg>
